<svg width="50" height="33" viewBox="0 0 50 33" fill="none" xmlns="http://www.w3.org/2000/svg">
<path d="M47.6953 26.9414H44.666V4.7373C44.666 3.62012 44.2739 2.66943 43.4897 1.88525C42.7056 1.10107 41.7549 0.708984 40.6377 0.708984H8.31445C7.19727 0.708984 6.24658 1.10107 5.4624 1.88525C4.67822 2.66943 4.28613 3.62012 4.28613 4.7373V26.9414H1.25684C0.977539 26.9414 0.73584 27.0381 0.531738 27.2314C0.327637 27.4248 0.225586 27.6611 0.225586 27.9404V28.9717C0.225586 30.0889 0.623047 31.0396 1.41797 31.8237C2.21289 32.6079 3.16895 33 4.28613 33H44.666C45.7832 33 46.7393 32.6079 47.5342 31.8237C48.3291 31.0396 48.7266 30.0889 48.7266 28.9717V27.9404C48.7266 27.6611 48.6245 27.4248 48.4204 27.2314C48.2163 27.0381 47.9746 26.9414 47.6953 26.9414ZM6.28418 4.7373C6.28418 4.17871 6.48291 3.70605 6.88037 3.31934C7.27783 2.93262 7.75586 2.73926 8.31445 2.73926H40.6377C41.1963 2.73926 41.6743 2.93262 42.0718 3.31934C42.4692 3.70605 42.668 4.17871 42.668 4.7373V26.9414H6.28418V4.7373ZM44.666 30.9697H4.28613C3.72754 30.9697 3.24951 30.7764 2.85205 30.3896C2.45459 30.0029 2.25586 29.5303 2.25586 28.9717H19.0137L19.7227 29.6807C19.8086 29.7666 19.916 29.8364 20.0449 29.8901C20.1738 29.9438 20.3027 29.9707 20.4316 29.9707H28.5205C28.6494 29.9707 28.7783 29.9438 28.9072 29.8901C29.0361 29.8364 29.1436 29.7666 29.2295 29.6807L29.9385 28.9717H46.6963C46.6963 29.5303 46.4976 30.0029 46.1001 30.3896C45.7026 30.7764 45.2246 30.9697 44.666 30.9697Z" fill="#F8941F"/>
<path d="M25 13.2222C26.9444 13.2222 28.5972 12.9176 29.9583 12.3083C31.3194 11.6991 32 10.9667 32 10.1111C32 9.25555 31.3194 8.52315 29.9583 7.91389C28.5972 7.30463 26.9444 7 25 7C23.0556 7 21.4028 7.30463 20.0417 7.91389C18.6806 8.52315 18 9.25555 18 10.1111C18 10.9667 18.6806 11.6991 20.0417 12.3083C21.4028 12.9176 23.0556 13.2222 25 13.2222ZM25 15.1667C25.5315 15.1667 26.196 15.1114 26.9934 15.001C27.7909 14.8905 28.5589 14.7124 29.2972 14.4667C30.0356 14.2209 30.6708 13.9002 31.2028 13.5045C31.7348 13.1089 32.0005 12.6259 32 12.0556V14C32 14.5704 31.7343 15.0534 31.2028 15.449C30.6713 15.8446 30.0361 16.1653 29.2972 16.4111C28.5583 16.6569 27.7904 16.8352 26.9934 16.9462C26.1965 17.0572 25.532 17.1121 25 17.1111C24.468 17.1101 23.8038 17.0548 23.0073 16.9454C22.2109 16.836 21.4427 16.6579 20.7028 16.4111C19.9629 16.1643 19.3277 15.8436 18.7972 15.449C18.2668 15.0544 18.001 14.5714 18 14V12.0556C18 12.6259 18.2657 13.1089 18.7972 13.5045C19.3287 13.9002 19.9639 14.2209 20.7028 14.4667C21.4417 14.7124 22.2099 14.8908 23.0073 15.0018C23.8048 15.1127 24.469 15.1677 25 15.1667ZM25 19.0555C25.5315 19.0555 26.196 19.0003 26.9934 18.8899C27.7909 18.7794 28.5589 18.6013 29.2972 18.3555C30.0356 18.1098 30.6708 17.7891 31.2028 17.3934C31.7348 16.9978 32.0005 16.5148 32 15.9444V17.8889C32 18.4592 31.7343 18.9422 31.2028 19.3379C30.6713 19.7335 30.0361 20.0542 29.2972 20.3C28.5583 20.5458 27.7904 20.7241 26.9934 20.8351C26.1965 20.9461 25.532 21.001 25 21C24.468 20.9989 23.8038 20.9437 23.0073 20.8343C22.2109 20.7249 21.4427 20.5468 20.7028 20.3C19.9629 20.0532 19.3277 19.7325 18.7972 19.3379C18.2668 18.9433 18.001 18.4603 18 17.8889V15.9444C18 16.5148 18.2657 16.9978 18.7972 17.3934C19.3287 17.7891 19.9639 18.1098 20.7028 18.3555C21.4417 18.6013 22.2099 18.7797 23.0073 18.8907C23.8048 19.0016 24.469 19.0566 25 19.0555Z" fill="#F8941F"/>
</svg>
