<svg width="13" height="12" viewBox="0 0 13 12" fill="none" xmlns="http://www.w3.org/2000/svg">
<path d="M3.5 10.1331V11.4665M9.5 10.1331V11.4665M1.7 4.6958C1.1 4.70914 0.5 4.98047 0.5 5.46647V8.13314C0.5 9.2378 1.306 10.1331 2.3 10.1331H10.7C11.694 10.1331 12.5 9.2378 12.5 8.13314V5.46647C12.5 4.92514 11.9 4.68247 11.3 4.6958M1.7 4.6958C2.3 4.68247 2.9 4.92514 2.9 5.46647C2.9 6.37514 3.05 7.46647 4.23333 7.46647H8.76667C9.95 7.46647 10.1 6.37514 10.1 5.46647C10.1 4.9798 10.7 4.7098 11.3 4.6958M1.7 4.6958V2.7998C1.7 1.69514 2.506 0.799805 3.5 0.799805H9.5C10.494 0.799805 11.3 1.69514 11.3 2.7998V4.6958" stroke="#222222" stroke-width="0.5" stroke-linecap="round" stroke-linejoin="round"/>
</svg>
