<svg width="13" height="13" viewBox="0 0 13 13" fill="none" xmlns="http://www.w3.org/2000/svg">
<mask id="path-1-inside-1_219_2553" fill="white">
<path d="M11 1.9998H9.2V1.0998C9.2 1.02024 9.16839 0.943934 9.11213 0.887673C9.05587 0.831412 8.97957 0.799805 8.9 0.799805C8.82044 0.799805 8.74413 0.831412 8.68787 0.887673C8.63161 0.943934 8.6 1.02024 8.6 1.0998V1.9998H4.4V1.0998C4.4 1.02024 4.36839 0.943934 4.31213 0.887673C4.25587 0.831412 4.17957 0.799805 4.1 0.799805C4.02044 0.799805 3.94413 0.831412 3.88787 0.887673C3.83161 0.943934 3.8 1.02024 3.8 1.0998V1.9998H2C1.60232 2.00028 1.22107 2.15847 0.939866 2.43967C0.658665 2.72087 0.500476 3.10213 0.5 3.4998V11.2998C0.500476 11.6975 0.658665 12.0787 0.939866 12.3599C1.22107 12.6411 1.60232 12.7993 2 12.7998H11C11.3978 12.7998 11.7794 12.6418 12.0607 12.3605C12.342 12.0792 12.5 11.6976 12.5 11.2998V3.4998C12.5 3.10198 12.342 2.72045 12.0607 2.43914C11.7794 2.15784 11.3978 1.9998 11 1.9998ZM11.9 11.2998C11.9 11.5385 11.8052 11.7674 11.6364 11.9362C11.4676 12.105 11.2387 12.1998 11 12.1998H2C1.76131 12.1998 1.53239 12.105 1.3636 11.9362C1.19482 11.7674 1.1 11.5385 1.1 11.2998V6.1998H11.9V11.2998ZM11.9 5.5998H1.1V3.4998C1.1 3.003 1.502 2.5998 2 2.5998H3.8V3.4998C3.8 3.57937 3.83161 3.65568 3.88787 3.71194C3.94413 3.7682 4.02044 3.7998 4.1 3.7998C4.17957 3.7998 4.25587 3.7682 4.31213 3.71194C4.36839 3.65568 4.4 3.57937 4.4 3.4998V2.5998H8.6V3.4998C8.6 3.57937 8.63161 3.65568 8.68787 3.71194C8.74413 3.7682 8.82044 3.7998 8.9 3.7998C8.97957 3.7998 9.05587 3.7682 9.11213 3.71194C9.16839 3.65568 9.2 3.57937 9.2 3.4998V2.5998H11C11.2387 2.5998 11.4676 2.69463 11.6364 2.86341C11.8052 3.03219 11.9 3.26111 11.9 3.4998V5.5998Z"/>
</mask>
<path d="M11 1.9998H9.2V1.0998C9.2 1.02024 9.16839 0.943934 9.11213 0.887673C9.05587 0.831412 8.97957 0.799805 8.9 0.799805C8.82044 0.799805 8.74413 0.831412 8.68787 0.887673C8.63161 0.943934 8.6 1.02024 8.6 1.0998V1.9998H4.4V1.0998C4.4 1.02024 4.36839 0.943934 4.31213 0.887673C4.25587 0.831412 4.17957 0.799805 4.1 0.799805C4.02044 0.799805 3.94413 0.831412 3.88787 0.887673C3.83161 0.943934 3.8 1.02024 3.8 1.0998V1.9998H2C1.60232 2.00028 1.22107 2.15847 0.939866 2.43967C0.658665 2.72087 0.500476 3.10213 0.5 3.4998V11.2998C0.500476 11.6975 0.658665 12.0787 0.939866 12.3599C1.22107 12.6411 1.60232 12.7993 2 12.7998H11C11.3978 12.7998 11.7794 12.6418 12.0607 12.3605C12.342 12.0792 12.5 11.6976 12.5 11.2998V3.4998C12.5 3.10198 12.342 2.72045 12.0607 2.43914C11.7794 2.15784 11.3978 1.9998 11 1.9998ZM11.9 11.2998C11.9 11.5385 11.8052 11.7674 11.6364 11.9362C11.4676 12.105 11.2387 12.1998 11 12.1998H2C1.76131 12.1998 1.53239 12.105 1.3636 11.9362C1.19482 11.7674 1.1 11.5385 1.1 11.2998V6.1998H11.9V11.2998ZM11.9 5.5998H1.1V3.4998C1.1 3.003 1.502 2.5998 2 2.5998H3.8V3.4998C3.8 3.57937 3.83161 3.65568 3.88787 3.71194C3.94413 3.7682 4.02044 3.7998 4.1 3.7998C4.17957 3.7998 4.25587 3.7682 4.31213 3.71194C4.36839 3.65568 4.4 3.57937 4.4 3.4998V2.5998H8.6V3.4998C8.6 3.57937 8.63161 3.65568 8.68787 3.71194C8.74413 3.7682 8.82044 3.7998 8.9 3.7998C8.97957 3.7998 9.05587 3.7682 9.11213 3.71194C9.16839 3.65568 9.2 3.57937 9.2 3.4998V2.5998H11C11.2387 2.5998 11.4676 2.69463 11.6364 2.86341C11.8052 3.03219 11.9 3.26111 11.9 3.4998V5.5998Z" fill="black"/>
<path d="M11 1.9998V0.999805V1.9998ZM9.2 1.9998H8.2V2.9998H9.2V1.9998ZM8.9 0.799805V-0.200195V0.799805ZM8.6 1.9998V2.9998H9.6V1.9998H8.6ZM4.4 1.9998H3.4V2.9998H4.4V1.9998ZM4.1 0.799805V-0.200195V0.799805ZM3.8 1.9998V2.9998H4.8V1.9998H3.8ZM2 1.9998V0.999804L1.9988 0.999805L2 1.9998ZM0.5 3.4998L-0.5 3.49861V3.4998H0.5ZM0.5 11.2998H-0.500001L-0.499999 11.301L0.5 11.2998ZM2 12.7998L1.9988 13.7998H2V12.7998ZM1.1 6.1998V5.1998H0.1V6.1998H1.1ZM11.9 6.1998H12.9V5.1998H11.9V6.1998ZM11.9 5.5998V6.5998H12.9V5.5998H11.9ZM1.1 5.5998H0.1V6.5998H1.1V5.5998ZM3.8 2.5998H4.8V1.5998H3.8V2.5998ZM4.4 2.5998V1.5998H3.4V2.5998H4.4ZM8.6 2.5998H9.6V1.5998H8.6V2.5998ZM9.2 2.5998V1.5998H8.2V2.5998H9.2ZM11 0.999805H9.2V2.9998H11V0.999805ZM10.2 1.9998V1.0998H8.2V1.9998H10.2ZM10.2 1.0998C10.2 0.755025 10.063 0.424364 9.81924 0.180566L8.40503 1.59478C8.27375 1.4635 8.2 1.28545 8.2 1.0998H10.2ZM9.81924 0.180566C9.57544 -0.0632316 9.24478 -0.200195 8.9 -0.200195V1.7998C8.71435 1.7998 8.5363 1.72606 8.40503 1.59478L9.81924 0.180566ZM8.9 -0.200195C8.55522 -0.200195 8.22456 -0.0632316 7.98076 0.180566L9.39497 1.59478C9.2637 1.72606 9.08565 1.7998 8.9 1.7998V-0.200195ZM7.98076 0.180566C7.73696 0.424364 7.6 0.755025 7.6 1.0998H9.6C9.6 1.28545 9.52625 1.4635 9.39497 1.59478L7.98076 0.180566ZM7.6 1.0998V1.9998H9.6V1.0998H7.6ZM8.6 0.999805H4.4V2.9998H8.6V0.999805ZM5.4 1.9998V1.0998H3.4V1.9998H5.4ZM5.4 1.0998C5.4 0.755025 5.26304 0.424364 5.01924 0.180566L3.60503 1.59478C3.47375 1.4635 3.4 1.28545 3.4 1.0998H5.4ZM5.01924 0.180566C4.77544 -0.0632316 4.44478 -0.200195 4.1 -0.200195V1.7998C3.91435 1.7998 3.7363 1.72606 3.60503 1.59478L5.01924 0.180566ZM4.1 -0.200195C3.75522 -0.200195 3.42456 -0.0632309 3.18076 0.180566L4.59497 1.59478C4.4637 1.72605 4.28565 1.7998 4.1 1.7998V-0.200195ZM3.18076 0.180566C2.93696 0.424363 2.8 0.755023 2.8 1.0998H4.8C4.8 1.28546 4.72625 1.4635 4.59497 1.59478L3.18076 0.180566ZM2.8 1.0998V1.9998H4.8V1.0998H2.8ZM3.8 0.999805H2V2.9998H3.8V0.999805ZM1.9988 0.999805C1.33632 1.0006 0.701203 1.26412 0.232759 1.73256L1.64697 3.14678C1.74093 3.05282 1.86832 2.99996 2.0012 2.9998L1.9988 0.999805ZM0.232759 1.73256C-0.235685 2.20101 -0.499206 2.83613 -0.499999 3.49861L1.5 3.501C1.50016 3.36813 1.55301 3.24074 1.64697 3.14678L0.232759 1.73256ZM-0.5 3.4998V11.2998H1.5V3.4998H-0.5ZM-0.499999 11.301C-0.499206 11.9635 -0.235685 12.5986 0.232759 13.067L1.64697 11.6528C1.55301 11.5589 1.50016 11.4315 1.5 11.2986L-0.499999 11.301ZM0.232759 13.067C0.701203 13.5355 1.33632 13.799 1.9988 13.7998L2.0012 11.7998C1.86832 11.7996 1.74093 11.7468 1.64697 11.6528L0.232759 13.067ZM2 13.7998H11V11.7998H2V13.7998ZM11 13.7998C11.663 13.7998 12.2989 13.5364 12.7678 13.0676L11.3536 11.6534C11.2598 11.7471 11.1326 11.7998 11 11.7998V13.7998ZM12.7678 13.0676C13.2366 12.5987 13.5 11.9628 13.5 11.2998H11.5C11.5 11.4324 11.4473 11.5596 11.3536 11.6534L12.7678 13.0676ZM13.5 11.2998V3.4998H11.5V11.2998H13.5ZM13.5 3.4998C13.5 2.83676 13.2366 2.20088 12.7678 1.73204L11.3536 3.14625C11.4473 3.24002 11.5 3.3672 11.5 3.4998H13.5ZM12.7678 1.73204C12.2989 1.2632 11.663 0.999805 11 0.999805V2.9998C11.1326 2.9998 11.2598 3.05248 11.3536 3.14625L12.7678 1.73204ZM10.9 11.2998C10.9 11.2733 10.9105 11.2478 10.9293 11.2291L12.3435 12.6433C12.6998 12.287 12.9 11.8037 12.9 11.2998H10.9ZM10.9293 11.2291C10.948 11.2103 10.9735 11.1998 11 11.1998V13.1998C11.5039 13.1998 11.9872 12.9996 12.3435 12.6433L10.9293 11.2291ZM11 11.1998H2V13.1998H11V11.1998ZM2 11.1998C2.02652 11.1998 2.05196 11.2103 2.07071 11.2291L0.656497 12.6433C1.01282 12.9996 1.49609 13.1998 2 13.1998V11.1998ZM2.07071 11.2291C2.08946 11.2478 2.1 11.2733 2.1 11.2998H0.1C0.1 11.8037 0.300178 12.287 0.656497 12.6433L2.07071 11.2291ZM2.1 11.2998V6.1998H0.1V11.2998H2.1ZM1.1 7.1998H11.9V5.1998H1.1V7.1998ZM10.9 6.1998V11.2998H12.9V6.1998H10.9ZM11.9 4.5998H1.1V6.5998H11.9V4.5998ZM2.1 5.5998V3.4998H0.1V5.5998H2.1ZM2.1 3.4998C2.1 3.55442 2.05515 3.5998 2 3.5998V1.5998C0.948847 1.5998 0.1 2.45159 0.1 3.4998H2.1ZM2 3.5998H3.8V1.5998H2V3.5998ZM2.8 2.5998V3.4998H4.8V2.5998H2.8ZM2.8 3.4998C2.8 3.84459 2.93696 4.17525 3.18076 4.41904L4.59497 3.00483C4.72625 3.13611 4.8 3.31415 4.8 3.4998H2.8ZM3.18076 4.41904C3.42456 4.66284 3.75522 4.7998 4.1 4.7998V2.7998C4.28565 2.7998 4.4637 2.87355 4.59497 3.00483L3.18076 4.41904ZM4.1 4.7998C4.44478 4.7998 4.77544 4.66284 5.01924 4.41904L3.60503 3.00483C3.7363 2.87355 3.91435 2.7998 4.1 2.7998V4.7998ZM5.01924 4.41904C5.26304 4.17525 5.4 3.84458 5.4 3.4998H3.4C3.4 3.31416 3.47375 3.13611 3.60503 3.00483L5.01924 4.41904ZM5.4 3.4998V2.5998H3.4V3.4998H5.4ZM4.4 3.5998H8.6V1.5998H4.4V3.5998ZM7.6 2.5998V3.4998H9.6V2.5998H7.6ZM7.6 3.4998C7.6 3.84458 7.73696 4.17525 7.98076 4.41904L9.39497 3.00483C9.52625 3.13611 9.6 3.31416 9.6 3.4998H7.6ZM7.98076 4.41904C8.22456 4.66284 8.55522 4.7998 8.9 4.7998V2.7998C9.08565 2.7998 9.2637 2.87355 9.39497 3.00483L7.98076 4.41904ZM8.9 4.7998C9.24478 4.7998 9.57544 4.66284 9.81924 4.41904L8.40503 3.00483C8.5363 2.87355 8.71435 2.7998 8.9 2.7998V4.7998ZM9.81924 4.41904C10.063 4.17525 10.2 3.84458 10.2 3.4998H8.2C8.2 3.31416 8.27375 3.13611 8.40503 3.00483L9.81924 4.41904ZM10.2 3.4998V2.5998H8.2V3.4998H10.2ZM9.2 3.5998H11V1.5998H9.2V3.5998ZM11 3.5998C10.9735 3.5998 10.948 3.58927 10.9293 3.57052L12.3435 2.1563C11.9872 1.79998 11.5039 1.5998 11 1.5998V3.5998ZM10.9293 3.57052C10.9105 3.55176 10.9 3.52633 10.9 3.4998H12.9C12.9 2.99589 12.6998 2.51262 12.3435 2.1563L10.9293 3.57052ZM10.9 3.4998V5.5998H12.9V3.4998H10.9Z" fill="#222222" mask="url(#path-1-inside-1_219_2553)"/>
</svg>
