<svg width="13" height="13" viewBox="0 0 13 13" fill="none" xmlns="http://www.w3.org/2000/svg">
<mask id="path-1-inside-1_219_2554" fill="white">
<path fill-rule="evenodd" clip-rule="evenodd" d="M6.86 6.50161L9.1946 8.83621L8.6858 9.3456L6.14 6.7998V3.1998H6.86V6.50161ZM6.5 12.7998C3.1862 12.7998 0.5 10.1136 0.5 6.7998C0.5 3.486 3.1862 0.799805 6.5 0.799805C9.8138 0.799805 12.5 3.486 12.5 6.7998C12.5 10.1136 9.8138 12.7998 6.5 12.7998ZM6.5 12.0798C7.90034 12.0798 9.24333 11.5235 10.2335 10.5333C11.2237 9.54314 11.78 8.20015 11.78 6.7998C11.78 5.39946 11.2237 4.05647 10.2335 3.06628C9.24333 2.07609 7.90034 1.5198 6.5 1.5198C5.09966 1.5198 3.75667 2.07609 2.76648 3.06628C1.77628 4.05647 1.22 5.39946 1.22 6.7998C1.22 8.20015 1.77628 9.54314 2.76648 10.5333C3.75667 11.5235 5.09966 12.0798 6.5 12.0798Z"/>
</mask>
<path fill-rule="evenodd" clip-rule="evenodd" d="M6.86 6.50161L9.1946 8.83621L8.6858 9.3456L6.14 6.7998V3.1998H6.86V6.50161ZM6.5 12.7998C3.1862 12.7998 0.5 10.1136 0.5 6.7998C0.5 3.486 3.1862 0.799805 6.5 0.799805C9.8138 0.799805 12.5 3.486 12.5 6.7998C12.5 10.1136 9.8138 12.7998 6.5 12.7998ZM6.5 12.0798C7.90034 12.0798 9.24333 11.5235 10.2335 10.5333C11.2237 9.54314 11.78 8.20015 11.78 6.7998C11.78 5.39946 11.2237 4.05647 10.2335 3.06628C9.24333 2.07609 7.90034 1.5198 6.5 1.5198C5.09966 1.5198 3.75667 2.07609 2.76648 3.06628C1.77628 4.05647 1.22 5.39946 1.22 6.7998C1.22 8.20015 1.77628 9.54314 2.76648 10.5333C3.75667 11.5235 5.09966 12.0798 6.5 12.0798Z" fill="black"/>
<path d="M6.86 6.50161H5.86V6.91582L6.15289 7.20871L6.86 6.50161ZM9.1946 8.83621L9.90212 9.5429L10.6084 8.83579L9.90171 8.1291L9.1946 8.83621ZM8.6858 9.3456L7.97869 10.0527L8.68622 10.7602L9.39332 10.0523L8.6858 9.3456ZM6.14 6.7998H5.14V7.21402L5.43289 7.50691L6.14 6.7998ZM6.14 3.1998V2.1998H5.14V3.1998H6.14ZM6.86 3.1998H7.86V2.1998H6.86V3.1998ZM6.5 1.5198V0.519805V1.5198ZM1.22 6.7998H0.22H1.22ZM6.15289 7.20871L8.48749 9.54331L9.90171 8.1291L7.56711 5.7945L6.15289 7.20871ZM8.48708 8.12952L7.97828 8.63892L9.39332 10.0523L9.90212 9.5429L8.48708 8.12952ZM9.39291 8.6385L6.84711 6.0927L5.43289 7.50691L7.97869 10.0527L9.39291 8.6385ZM7.14 6.7998V3.1998H5.14V6.7998H7.14ZM6.14 4.1998H6.86V2.1998H6.14V4.1998ZM5.86 3.1998V6.50161H7.86V3.1998H5.86ZM6.5 11.7998C3.73849 11.7998 1.5 9.56132 1.5 6.7998H-0.5C-0.5 10.6659 2.63392 13.7998 6.5 13.7998V11.7998ZM1.5 6.7998C1.5 4.03829 3.73849 1.7998 6.5 1.7998V-0.200195C2.63392 -0.200195 -0.5 2.93372 -0.5 6.7998H1.5ZM6.5 1.7998C9.26152 1.7998 11.5 4.03829 11.5 6.7998H13.5C13.5 2.93372 10.3661 -0.200195 6.5 -0.200195V1.7998ZM11.5 6.7998C11.5 9.56132 9.26152 11.7998 6.5 11.7998V13.7998C10.3661 13.7998 13.5 10.6659 13.5 6.7998H11.5ZM6.5 13.0798C8.16556 13.0798 9.7629 12.4182 10.9406 11.2404L9.52642 9.82622C8.72376 10.6289 7.63513 11.0798 6.5 11.0798V13.0798ZM10.9406 11.2404C12.1184 10.0627 12.78 8.46536 12.78 6.7998H10.78C10.78 7.93493 10.3291 9.02357 9.52642 9.82622L10.9406 11.2404ZM12.78 6.7998C12.78 5.13425 12.1184 3.5369 10.9406 2.35917L9.52642 3.77339C10.3291 4.57604 10.78 5.66468 10.78 6.7998H12.78ZM10.9406 2.35917C9.7629 1.18145 8.16556 0.519805 6.5 0.519805L6.5 2.5198C7.63513 2.5198 8.72376 2.97073 9.52642 3.77339L10.9406 2.35917ZM6.5 0.519805C4.83444 0.519805 3.2371 1.18145 2.05937 2.35917L3.47358 3.77339C4.27624 2.97073 5.36487 2.5198 6.5 2.5198L6.5 0.519805ZM2.05937 2.35917C0.881641 3.5369 0.22 5.13425 0.22 6.7998L2.22 6.79981C2.22 5.66468 2.67093 4.57604 3.47358 3.77339L2.05937 2.35917ZM0.22 6.7998C0.22 8.46536 0.881641 10.0627 2.05937 11.2404L3.47358 9.82622C2.67093 9.02357 2.22 7.93493 2.22 6.7998H0.22ZM2.05937 11.2404C3.2371 12.4182 4.83444 13.0798 6.5 13.0798V11.0798C5.36487 11.0798 4.27624 10.6289 3.47358 9.82622L2.05937 11.2404Z" fill="#222222" mask="url(#path-1-inside-1_219_2554)"/>
</svg>
