<svg width="42" height="34" viewBox="0 0 42 34" fill="none" xmlns="http://www.w3.org/2000/svg">
<path d="M41.2575 7.05263H41.2201C40.5009 7.05722 40.3893 6.43247 40.3768 6.14241V1.60575C40.3768 1.12144 39.9844 0.729004 39.5014 0.729004H26.5306C23.2763 0.729004 22.0622 1.93519 21.761 2.31385L21.6783 2.42869L21.6776 2.43066L21.421 2.78241C21.0765 3.25557 20.776 3.0541 20.6316 2.89922L20.1407 2.28694L19.8979 1.99425C19.4897 1.56572 18.4259 0.729004 16.3174 0.729004H2.49873C2.01442 0.729004 1.62198 1.12144 1.62198 1.60575V6.08466C1.62198 6.86888 1.19608 7.02638 0.934891 7.05263H0.740641C0.528016 7.06575 0.0332031 7.18913 0.0332031 8.09935V29.4465C0.0332031 29.9702 0.457797 30.3941 0.981484 30.3941H13.5933C17.6168 30.3941 19.3703 31.9114 19.8959 32.4935L20.1958 32.8649C20.1958 32.8649 21.001 33.7751 21.8489 32.8649L22.0248 32.6588L22.0274 32.6575L22.2519 32.395C22.2584 32.3872 22.3122 32.3268 22.3903 32.2467C23.0617 31.5938 24.7397 30.3941 28.021 30.3941H41.018C41.5423 30.3941 41.9663 29.9702 41.9663 29.4465V7.89263C41.9663 7.12088 41.4078 7.05657 41.2575 7.05263ZM38.4238 26.097C38.4238 26.5177 38.0727 26.8569 37.6357 26.8569H26.9421C23.1365 26.8569 21.7551 28.5763 21.7551 28.5763L21.5799 28.8113L21.4978 28.9248C21.1349 29.4176 20.6007 28.9287 20.5981 28.9261L20.352 28.6183C20.1696 28.3991 18.7718 26.8563 15.3888 26.8563H4.3638C3.9287 26.8563 3.57695 26.5163 3.57695 26.0963V3.34941C3.57695 2.92941 3.9287 2.58947 4.3638 2.58947H12.9233C19.2902 2.58947 19.8933 6.20607 19.9346 7.25672V23.0763C19.9346 24.226 20.4826 24.4419 20.7917 24.4734H21.2517C21.5667 24.4419 22.0675 24.2549 22.0675 23.3578V7.05263H22.0622C22.1095 5.73685 22.6226 2.58882 26.4519 2.58882H37.6357C38.0727 2.58882 38.4238 2.92875 38.4238 3.34875V26.097Z" fill="#FF4EE1"/>
</svg>
