<svg width="56" height="42" viewBox="0 0 56 42" fill="none" xmlns="http://www.w3.org/2000/svg">
<path d="M53.376 38.6572H34.918V39.6982C34.918 39.9919 34.8179 40.2454 34.6177 40.459C34.4175 40.6725 34.1706 40.7793 33.877 40.7793H21.3047C21.0378 40.7793 20.7975 40.6725 20.584 40.459C20.3704 40.2454 20.2637 39.9919 20.2637 39.6982V38.6572H1.8457C1.15169 38.6305 0.804688 38.2835 0.804688 37.6162C0.804688 36.9489 1.15169 36.6019 1.8457 36.5752H20.2637V35.5342C20.2637 35.2406 20.3704 34.9937 20.584 34.7935C20.7975 34.5933 21.0378 34.4932 21.3047 34.4932H26.5498V32.3711H12.9365C12.6429 32.3711 12.396 32.271 12.1958 32.0708C11.9956 31.8706 11.8955 31.6237 11.8955 31.3301V18.7578C11.8955 18.4642 11.9956 18.2173 12.1958 18.0171C12.396 17.8169 12.6429 17.7168 12.9365 17.7168H13.9775V15.6348H12.9365C12.6429 15.6348 12.396 15.5347 12.1958 15.3345C11.9956 15.1343 11.8955 14.8874 11.8955 14.5938V2.02148C11.8955 1.72786 11.9956 1.48096 12.1958 1.28076C12.396 1.08057 12.6429 0.980469 12.9365 0.980469H42.2852C42.5521 0.980469 42.7923 1.08057 43.0059 1.28076C43.2194 1.48096 43.3262 1.72786 43.3262 2.02148V14.5938C43.3262 14.8874 43.2194 15.1343 43.0059 15.3345C42.7923 15.5347 42.5521 15.6348 42.2852 15.6348H41.2041V17.7168H42.2852C42.5521 17.7168 42.7923 17.8169 43.0059 18.0171C43.2194 18.2173 43.3262 18.4642 43.3262 18.7578V31.3301C43.3262 31.6237 43.2194 31.8706 43.0059 32.0708C42.7923 32.271 42.5521 32.3711 42.2852 32.3711H28.6719V34.4932H33.877C34.1706 34.4932 34.4175 34.5933 34.6177 34.7935C34.8179 34.9937 34.918 35.2406 34.918 35.5342V36.5752H53.376C54.07 36.6019 54.417 36.9489 54.417 37.6162C54.417 38.2835 54.07 38.6305 53.376 38.6572ZM41.2041 3.0625H13.9775V9.34863H25.0684L28.9521 5.46484C29.0589 5.35807 29.1724 5.278 29.2925 5.22461C29.4126 5.17122 29.5527 5.14453 29.7129 5.14453H41.2041V3.0625ZM41.2041 7.2666H30.1133L26.2695 11.1504C26.1628 11.2305 26.0426 11.2972 25.9092 11.3506C25.7757 11.404 25.6423 11.4307 25.5088 11.4307H13.9775V13.5527H41.2041V7.2666ZM16.0996 15.6348V17.7168H39.1221V15.6348H16.0996ZM41.2041 19.7988H13.9775V26.085H25.0684L28.9521 22.2012C29.0589 22.1211 29.1724 22.0544 29.2925 22.001C29.4126 21.9476 29.5527 21.9209 29.7129 21.9209H41.2041V19.7988ZM41.2041 30.2891V24.0029H30.1133L26.2695 27.8867C26.1628 27.9935 26.0426 28.0736 25.9092 28.127C25.7757 28.1803 25.6423 28.207 25.5088 28.207H13.9775V30.2891H41.2041ZM32.8359 36.5752H22.3857V38.6572H32.8359V36.5752ZM34.918 27.166C34.918 27.4329 34.8179 27.6665 34.6177 27.8667C34.4175 28.0669 34.1706 28.167 33.877 28.167C33.61 28.167 33.3698 28.0669 33.1562 27.8667C32.9427 27.6665 32.8359 27.4329 32.8359 27.166C32.8626 26.472 33.2096 26.125 33.877 26.125C34.5443 26.125 34.8913 26.472 34.918 27.166ZM39.1221 27.166C39.1221 27.4329 39.022 27.6732 38.8218 27.8867C38.6216 28.1003 38.3747 28.207 38.0811 28.207C37.7874 28.207 37.5405 28.1003 37.3403 27.8867C37.1401 27.6732 37.04 27.4329 37.04 27.166C37.0667 26.472 37.4137 26.125 38.0811 26.125C38.7484 26.125 39.0954 26.472 39.1221 27.166ZM33.877 9.34863C34.1706 9.34863 34.4175 9.44873 34.6177 9.64893C34.8179 9.84912 34.918 10.096 34.918 10.3896C34.8913 11.0837 34.5443 11.4307 33.877 11.4307C33.2096 11.4307 32.8626 11.0837 32.8359 10.3896C32.8359 10.096 32.936 9.84912 33.1362 9.64893C33.3364 9.44873 33.5833 9.34863 33.877 9.34863ZM38.0811 9.34863C38.3747 9.34863 38.6216 9.44873 38.8218 9.64893C39.022 9.84912 39.1221 10.096 39.1221 10.3896C39.0954 11.0837 38.7484 11.4307 38.0811 11.4307C37.4137 11.4307 37.0667 11.0837 37.04 10.3896C37.04 10.096 37.1401 9.84912 37.3403 9.64893C37.5405 9.44873 37.7874 9.34863 38.0811 9.34863Z" fill="#8E56FF"/>
</svg>
