<svg width="50" height="48" viewBox="0 0 50 48" fill="none" xmlns="http://www.w3.org/2000/svg">
<path d="M49.3608 6.04685L43.9233 9.04685C43.8608 9.0781 43.7905 9.10935 43.7124 9.1406C43.6342 9.17185 43.5483 9.18747 43.4545 9.18747C43.2045 9.18747 42.9858 9.09372 42.7983 8.90622C42.6108 8.71872 42.517 8.48435 42.517 8.2031C42.517 8.0156 42.5561 7.85154 42.6342 7.71091C42.7124 7.57029 42.8295 7.4531 42.9858 7.35935L48.4233 4.35935C48.4858 4.29685 48.5561 4.25779 48.6342 4.24216C48.7124 4.22654 48.7983 4.21872 48.892 4.21872C49.1733 4.21872 49.4077 4.31247 49.5952 4.49997C49.7827 4.68747 49.8764 4.92185 49.8764 5.2031C49.8764 5.3906 49.8295 5.55466 49.7358 5.69529C49.642 5.83591 49.517 5.9531 49.3608 6.04685ZM38.3452 27.6562L19.7358 31.3125L21.0014 33.5156C21.0327 33.5781 21.0639 33.6484 21.0952 33.7265C21.1264 33.8047 21.142 33.8906 21.142 33.9843C21.142 34.1718 21.0952 34.3359 21.0014 34.4765C20.9077 34.6172 20.7827 34.7343 20.6264 34.8281L18.0952 36.2812L21.0483 41.3437C21.2045 41.625 21.3295 41.9297 21.4233 42.2578C21.517 42.5859 21.5639 42.9218 21.5639 43.2656C21.5639 43.9843 21.3842 44.6406 21.0249 45.2343C20.6655 45.8281 20.2045 46.2968 19.642 46.6406H19.5952C18.6577 47.2031 17.6733 47.3359 16.642 47.039C15.6108 46.7422 14.8295 46.1406 14.2983 45.2343L9.37642 36.75C7.84517 37.375 6.27485 37.414 4.66548 36.8672C3.0561 36.3203 1.82954 35.3125 0.985792 33.8437C0.0482916 32.2187 -0.178271 30.5 0.306104 28.6875C0.790479 26.875 1.84517 25.5 3.47017 24.5625L11.7202 19.7812L24.4233 3.60935C24.7045 3.2031 25.0561 2.87497 25.478 2.62497C25.8999 2.37497 26.3608 2.24997 26.8608 2.24997C26.8608 2.24997 26.8686 2.24997 26.8842 2.24997C26.8999 2.24997 26.9077 2.24997 26.9077 2.24997C27.4389 2.24997 27.9233 2.38279 28.3608 2.64841C28.7983 2.91404 29.142 3.2656 29.392 3.7031H29.4389L33.0014 9.93747L36.7514 9.7031C36.7514 9.7031 36.7592 9.7031 36.7749 9.7031C36.7905 9.7031 36.7983 9.7031 36.7983 9.7031C36.9858 9.7031 37.1499 9.74997 37.2905 9.84372C37.4311 9.93747 37.5483 10.0468 37.642 10.1718L39.6108 13.5468C39.642 13.6093 39.6655 13.6875 39.6811 13.7812C39.6967 13.875 39.7045 13.9687 39.7045 14.0625C39.7045 14.1562 39.6967 14.25 39.6811 14.3437C39.6655 14.4375 39.6264 14.5156 39.5639 14.5781L37.5014 17.7187L40.7358 23.2968C41.267 24.2343 41.2749 25.1797 40.7592 26.1328C40.2436 27.0859 39.4389 27.5937 38.3452 27.6562ZM18.8452 33.6562L17.8608 31.9687L16.1733 32.9062L17.1577 34.5937L18.8452 33.6562ZM15.9858 44.25C16.142 44.5312 16.3686 44.7656 16.6655 44.9531C16.9624 45.1406 17.2983 45.2343 17.6733 45.2343C17.8608 45.2343 18.0327 45.2109 18.1889 45.164C18.3452 45.1172 18.5014 45.0468 18.6577 44.9531C18.9389 44.7968 19.1655 44.5703 19.3374 44.2734C19.5092 43.9765 19.5952 43.6406 19.5952 43.2656C19.5952 43.1093 19.5717 42.9453 19.5249 42.7734C19.478 42.6015 19.4233 42.4375 19.3608 42.2812V42.3281L14.4858 33.8906L11.1108 35.8593L15.9858 44.25ZM4.45454 26.2031C3.70454 26.6406 3.11079 27.2343 2.67329 27.9843C2.23579 28.7343 2.01704 29.5468 2.01704 30.4218C2.01704 30.8593 2.07173 31.2812 2.1811 31.6875C2.29048 32.0937 2.45454 32.4843 2.67329 32.8593C3.07954 33.5781 3.65767 34.164 4.40767 34.6172C5.15767 35.0703 5.98579 35.2968 6.89204 35.2968C7.32954 35.2968 7.75142 35.2343 8.15767 35.1093C8.56392 34.9843 8.95454 34.8281 9.32954 34.6406H9.28267L16.8764 30.2812L12.0014 21.8437L4.45454 26.2031ZM24.4233 6.74997L13.5483 20.625L18.7045 29.5312L35.6733 26.2031L24.4233 6.74997ZM37.5952 14.0156L36.2827 11.6718L34.0795 11.8125L36.4233 15.8437L37.5952 14.0156ZM39.0483 24.2812L27.7514 4.68747C27.6577 4.53122 27.5405 4.41404 27.3999 4.33591C27.2592 4.25779 27.0952 4.21872 26.9077 4.21872C26.9077 4.21872 26.892 4.21872 26.8608 4.21872C26.7045 4.21872 26.5561 4.25779 26.4155 4.33591C26.2749 4.41404 26.1577 4.53122 26.0639 4.68747C26.0327 4.71872 26.0014 4.75779 25.9702 4.80466C25.9389 4.85154 25.8608 4.9531 25.7358 5.10935L37.6889 25.8281C37.8764 25.7968 37.9936 25.7734 38.0405 25.7578C38.0874 25.7422 38.1577 25.7343 38.2514 25.7343C38.5014 25.7343 38.7202 25.6406 38.9077 25.4531C39.0952 25.2656 39.1889 25.0312 39.1889 24.75C39.1889 24.6562 39.1733 24.5703 39.142 24.4922C39.1108 24.414 39.0795 24.3437 39.0483 24.2812ZM13.3608 30.0468C13.2983 30.0781 13.228 30.1093 13.1499 30.1406C13.0717 30.1718 12.9858 30.1875 12.892 30.1875C12.6108 30.1875 12.3764 30.0937 12.1889 29.9062C12.0014 29.7187 11.9077 29.4843 11.9077 29.2031C11.9077 29.0156 11.9545 28.8515 12.0483 28.7109C12.142 28.5703 12.267 28.4531 12.4233 28.3593C12.4858 28.3281 12.5561 28.2968 12.6342 28.2656C12.7124 28.2343 12.7983 28.2187 12.892 28.2187C13.1733 28.2187 13.4077 28.3125 13.5952 28.5C13.7827 28.6875 13.8764 28.9218 13.8764 29.2031C13.8764 29.3906 13.8295 29.5547 13.7358 29.6953C13.642 29.8359 13.5327 29.9531 13.4077 30.0468H13.3608ZM10.0327 31.9687L8.34517 32.9531C8.12642 33.0781 7.89204 33.1718 7.64204 33.2343C7.39204 33.2968 7.14204 33.3281 6.89204 33.3281C6.32954 33.3281 5.82954 33.1953 5.39204 32.9297C4.95454 32.664 4.61079 32.3281 4.36079 31.9218V31.875C4.29829 31.8125 4.25923 31.7422 4.2436 31.664C4.22798 31.5859 4.22017 31.5156 4.22017 31.4531C4.22017 31.1718 4.31392 30.9375 4.50142 30.75C4.68892 30.5625 4.92329 30.4687 5.20454 30.4687C5.36079 30.4687 5.51704 30.5078 5.67329 30.5859C5.82954 30.664 5.93892 30.7812 6.00142 30.9375H6.04829C6.11079 31.0625 6.22017 31.1718 6.37642 31.2656C6.53267 31.3593 6.70454 31.4062 6.89204 31.4062C6.95454 31.4062 7.03267 31.3984 7.12642 31.3828C7.22017 31.3672 7.29829 31.3281 7.36079 31.2656L9.04829 30.2812C9.11079 30.25 9.1811 30.2265 9.25923 30.2109C9.33735 30.1953 9.42329 30.1875 9.51704 30.1875C9.79829 30.1875 10.0327 30.2812 10.2202 30.4687C10.4077 30.6562 10.5014 30.875 10.5014 31.125C10.5014 31.3125 10.4545 31.4843 10.3608 31.6406C10.267 31.7968 10.1577 31.9062 10.0327 31.9687ZM39.2827 5.06247C39.2202 5.28122 39.103 5.4531 38.9311 5.5781C38.7592 5.7031 38.5639 5.7656 38.3452 5.7656C38.0639 5.7656 37.8295 5.67185 37.642 5.48435C37.4545 5.29685 37.3608 5.0781 37.3608 4.8281C37.3608 4.7656 37.3608 4.71872 37.3608 4.68747C37.3608 4.65622 37.3764 4.60935 37.4077 4.54685L38.392 0.796848C38.4545 0.609348 38.5717 0.445286 38.7436 0.304661C38.9155 0.164036 39.1108 0.0937233 39.3295 0.0937233C39.6108 0.0937233 39.8452 0.187473 40.0327 0.374973C40.2202 0.562473 40.3139 0.796848 40.3139 1.0781C40.3139 1.10935 40.3139 1.14841 40.3139 1.19529C40.3139 1.24216 40.2983 1.28122 40.267 1.31247L39.2827 5.06247ZM44.1108 13.4062L47.8608 14.3906C48.0483 14.4531 48.2124 14.5703 48.353 14.7422C48.4936 14.914 48.5639 15.1093 48.5639 15.3281C48.5639 15.6093 48.4702 15.8437 48.2827 16.0312C48.0952 16.2187 47.8608 16.3125 47.5795 16.3125C47.5483 16.3125 47.5092 16.3125 47.4624 16.3125C47.4155 16.3125 47.3764 16.2969 47.3452 16.2656L43.5952 15.2812C43.3764 15.2187 43.1967 15.1015 43.0561 14.9297C42.9155 14.7578 42.8452 14.5625 42.8452 14.3437C42.8452 14.0625 42.9467 13.8281 43.1499 13.6406C43.353 13.4531 43.5795 13.3593 43.8295 13.3593C43.892 13.3593 43.9389 13.3672 43.9702 13.3828C44.0014 13.3984 44.0483 13.4062 44.1108 13.4062Z" fill="#F92596"/>
</svg>
