<svg width="26" height="26" viewBox="0 0 26 26" fill="none" xmlns="http://www.w3.org/2000/svg">
<path fill-rule="evenodd" clip-rule="evenodd" d="M13.8874 26H1.435C0.642239 26 0 25.3574 0 24.5649V1.43499C0 0.642338 0.64234 0 1.435 0H24.5651C25.3576 0 26 0.642338 26 1.43499V24.5649C26 25.3575 25.3575 26 24.5651 26H17.9396V15.9314H21.3192L21.8252 12.0074H17.9396V9.50227C17.9396 8.3662 18.2551 7.592 19.8842 7.592L21.962 7.59109V4.08151C21.6027 4.03369 20.3693 3.92685 18.9343 3.92685C15.9385 3.92685 13.8874 5.75549 13.8874 9.11366V12.0074H10.4992V15.9314H13.8874V26Z" fill="#4460A0"/>
</svg>
