<svg width="44" height="44" viewBox="0 0 44 44" fill="none" xmlns="http://www.w3.org/2000/svg">
<path d="M41.3828 43.2266H1.25C0.963542 43.2266 0.720052 43.1335 0.519531 42.9473C0.31901 42.7611 0.21875 42.5247 0.21875 42.2383V1.24609C0.21875 0.959637 0.31901 0.716145 0.519531 0.515625C0.720052 0.315105 0.963542 0.214844 1.25 0.214844H41.3828C41.6693 0.214844 41.9128 0.315105 42.1133 0.515625C42.3138 0.716145 42.4141 0.959637 42.4141 1.24609V42.2383C42.4141 42.5247 42.3138 42.7611 42.1133 42.9473C41.9128 43.1335 41.6693 43.2266 41.3828 43.2266ZM40.3516 2.27734H2.28125V9.625H40.3516V2.27734ZM40.3516 11.6875H2.28125V41.207H40.3516V11.6875ZM27.5039 33.2148C27.418 33.3294 27.3105 33.4082 27.1816 33.4512C27.0527 33.4941 26.9167 33.5156 26.7734 33.5156C26.487 33.5156 26.2435 33.4225 26.043 33.2363C25.8424 33.0501 25.7422 32.8138 25.7422 32.5273C25.7422 32.3841 25.7637 32.2552 25.8066 32.1406C25.8496 32.026 25.9141 31.9258 26 31.8398L30.8984 26.4258L26.1719 21.0117C26.1146 20.9258 26.0645 20.8255 26.0215 20.7109C25.9785 20.5964 25.957 20.4818 25.957 20.3672C25.957 20.0807 26.0573 19.8372 26.2578 19.6367C26.4583 19.4362 26.7018 19.3359 26.9883 19.3359C27.1315 19.3359 27.2676 19.3646 27.3965 19.4219C27.5254 19.4792 27.6328 19.5651 27.7188 19.6797L33.0469 25.7812C33.2188 25.9531 33.3047 26.1751 33.3047 26.4473C33.3047 26.7194 33.2188 26.9414 33.0469 27.1133L27.5039 33.2148ZM19.8555 32.8711C19.7695 33.0716 19.6406 33.2363 19.4688 33.3652C19.2969 33.4941 19.1107 33.5586 18.9102 33.5586C18.6237 33.5586 18.3802 33.4583 18.1797 33.2578C17.9792 33.0573 17.8789 32.8138 17.8789 32.5273C17.8789 32.4701 17.8789 32.4128 17.8789 32.3555C17.8789 32.2982 17.8932 32.2409 17.9219 32.1836L22.4336 19.9805C22.5195 19.7799 22.6484 19.6224 22.8203 19.5078C22.9922 19.3932 23.1784 19.3359 23.3789 19.3359C23.6654 19.3359 23.9089 19.4362 24.1094 19.6367C24.3099 19.8372 24.4102 20.0664 24.4102 20.3242C24.4102 20.4102 24.403 20.4818 24.3887 20.5391C24.3743 20.5964 24.3672 20.6536 24.3672 20.7109L19.8555 32.8711ZM11.7344 26.4688L16.4609 31.8398C16.5182 31.9544 16.5684 32.0618 16.6113 32.1621C16.6543 32.2624 16.6758 32.3841 16.6758 32.5273C16.6758 32.8138 16.5755 33.0573 16.375 33.2578C16.1745 33.4583 15.931 33.5586 15.6445 33.5586C15.5013 33.5586 15.3652 33.5228 15.2363 33.4512C15.1074 33.3796 15 33.3008 14.9141 33.2148L9.58594 27.1133C9.5 27.0273 9.43555 26.9271 9.39258 26.8125C9.34961 26.6979 9.32812 26.569 9.32812 26.4258C9.32812 26.3112 9.34961 26.1895 9.39258 26.0605C9.43555 25.9316 9.5 25.8242 9.58594 25.7383L15.1289 19.6367C15.2435 19.5508 15.3652 19.472 15.4941 19.4004C15.623 19.3288 15.7591 19.293 15.9023 19.293C16.1888 19.293 16.4323 19.3932 16.6328 19.5938C16.8333 19.7943 16.9336 20.0378 16.9336 20.3242C16.9336 20.4674 16.9121 20.5964 16.8691 20.7109C16.8262 20.8255 16.7617 20.9401 16.6758 21.0547L11.7344 26.4688ZM4.64453 4.94141C4.64453 4.94141 4.65169 4.94141 4.66602 4.94141C4.68034 4.94141 4.6875 4.94141 4.6875 4.94141C4.91667 4.94141 5.11003 4.9987 5.26758 5.11328C5.42513 5.22786 5.54688 5.37109 5.63281 5.54297C5.71875 5.77214 5.73307 6.00846 5.67578 6.25195C5.61849 6.49544 5.48958 6.67448 5.28906 6.78906C5.20312 6.84636 5.11003 6.88932 5.00977 6.91797C4.90951 6.94661 4.80208 6.96094 4.6875 6.96094C4.57292 6.96094 4.46549 6.94661 4.36523 6.91797C4.26497 6.88932 4.17188 6.83203 4.08594 6.74609C3.97135 6.66016 3.87826 6.54557 3.80664 6.40234C3.73503 6.25911 3.69922 6.10156 3.69922 5.92969C3.69922 5.90104 3.69922 5.85807 3.69922 5.80078C3.69922 5.74349 3.69922 5.70052 3.69922 5.67188C3.78516 5.47136 3.9069 5.29948 4.06445 5.15625C4.22201 5.01302 4.41536 4.94141 4.64453 4.94141ZM8.72656 4.94141C8.92708 4.91276 9.1276 4.95573 9.32812 5.07031C9.52865 5.18489 9.67188 5.34245 9.75781 5.54297C9.84375 5.77214 9.85091 6.00846 9.7793 6.25195C9.70768 6.49544 9.57161 6.67448 9.37109 6.78906C9.19922 6.90364 9.00586 6.96094 8.79102 6.96094C8.57617 6.96094 8.38281 6.90364 8.21094 6.78906C8.06771 6.70312 7.96029 6.58138 7.88867 6.42383C7.81706 6.26628 7.78125 6.10156 7.78125 5.92969C7.78125 5.90104 7.78841 5.85807 7.80273 5.80078C7.81706 5.74349 7.82422 5.70052 7.82422 5.67188C7.88151 5.47136 7.98893 5.29948 8.14648 5.15625C8.30404 5.01302 8.4974 4.94141 8.72656 4.94141ZM13.0664 4.94141C13.2669 4.97005 13.446 5.06315 13.6035 5.2207C13.7611 5.37825 13.8685 5.55729 13.9258 5.75781C13.9544 5.98698 13.9115 6.20898 13.7969 6.42383C13.6823 6.63867 13.5104 6.80339 13.2812 6.91797C13.1094 6.97526 12.916 6.98242 12.7012 6.93945C12.4863 6.89648 12.3073 6.80339 12.1641 6.66016C12.0781 6.57422 12.0137 6.4668 11.9707 6.33789C11.9277 6.20898 11.9062 6.07292 11.9062 5.92969C11.9062 5.87239 11.9134 5.80078 11.9277 5.71484C11.9421 5.62891 11.9635 5.54297 11.9922 5.45703V5.5C12.0781 5.32812 12.207 5.19206 12.3789 5.0918C12.5508 4.99154 12.7227 4.94141 12.8945 4.94141C12.9232 4.94141 12.9518 4.94141 12.9805 4.94141C13.0091 4.94141 13.0378 4.94141 13.0664 4.94141Z" fill="#0ECD73"/>
</svg>
