<svg width="109" height="16" viewBox="0 0 109 16" fill="none" xmlns="http://www.w3.org/2000/svg">
<path d="M1.09961 14.0215L1.6416 13.6553C1.72949 13.7627 1.69775 13.8384 1.54639 13.8823C1.39502 13.9263 1.24609 13.9727 1.09961 14.0215ZM108.619 14.2705C108.57 14.29 108.507 14.3071 108.429 14.3218C108.351 14.3364 108.302 14.3584 108.282 14.3877C108.272 14.4072 108.302 14.4316 108.37 14.4609C108.438 14.4902 108.502 14.5244 108.561 14.5635L108.121 14.7246C107.896 14.7051 107.743 14.6636 107.66 14.6001C107.577 14.5366 107.491 14.4707 107.403 14.4023C107.325 14.3438 107.242 14.2876 107.154 14.2339C107.066 14.1802 106.974 14.1338 106.876 14.0947L106.861 14.0801C106.783 14.041 106.693 14.0166 106.59 14.0068C106.488 13.9971 106.397 14.0166 106.319 14.0654C106.251 14.1143 106.224 14.1558 106.239 14.1899C106.253 14.2241 106.339 14.251 106.495 14.2705C106.544 14.2803 106.576 14.3096 106.59 14.3584C106.605 14.4072 106.632 14.4561 106.671 14.5049C106.593 14.5049 106.534 14.5049 106.495 14.5049C106.456 14.5049 106.427 14.5 106.407 14.4902C106.017 14.2559 105.599 14.0337 105.155 13.8237C104.71 13.6138 104.239 13.416 103.741 13.2305C103.556 13.1523 103.392 13.0693 103.25 12.9814C103.109 12.8936 102.96 12.8057 102.804 12.7178C102.726 12.6787 102.645 12.6396 102.562 12.6006C102.479 12.5615 102.354 12.5664 102.188 12.6152C102.179 12.6152 102.167 12.6152 102.152 12.6152C102.137 12.6152 102.12 12.6152 102.101 12.6152C102.081 12.6152 102.057 12.6152 102.027 12.6152C101.998 12.6152 101.974 12.6104 101.954 12.6006C101.759 12.5615 101.563 12.52 101.368 12.4761C101.173 12.4321 100.978 12.3857 100.782 12.3369C100.753 12.3369 100.721 12.3345 100.687 12.3296C100.653 12.3247 100.631 12.3174 100.621 12.3076C100.523 12.1904 100.362 12.127 100.138 12.1172C99.9131 12.1074 99.6934 12.0879 99.4785 12.0586C99.3223 12.0391 99.1709 12.0098 99.0244 11.9707C98.8779 11.9316 98.7314 11.8975 98.585 11.8682C98.3896 11.8193 98.1943 11.7729 97.999 11.729C97.8037 11.6851 97.6035 11.6436 97.3984 11.6045C96.7734 11.4775 96.146 11.353 95.5161 11.231C94.8862 11.1089 94.2637 10.9795 93.6484 10.8428C93.2676 10.7646 92.8818 10.6865 92.4912 10.6084C92.1006 10.5303 91.7075 10.4546 91.312 10.3813C90.9165 10.3081 90.5186 10.2373 90.1182 10.1689C89.7178 10.1006 89.3223 10.0322 88.9316 9.96387C88.5801 9.89551 88.2334 9.83203 87.8916 9.77344C87.5498 9.71484 87.2031 9.65625 86.8516 9.59766C86.5195 9.54883 86.1851 9.49512 85.8481 9.43652C85.5112 9.37793 85.1621 9.33398 84.8008 9.30469C84.6152 9.29492 84.4321 9.27539 84.2515 9.24609C84.0708 9.2168 83.8926 9.1875 83.7168 9.1582C83.502 9.12891 83.2847 9.10205 83.0649 9.07764C82.8452 9.05322 82.6279 9.03125 82.4131 9.01172C82.2471 8.98242 82.0811 8.95312 81.915 8.92383C81.749 8.89453 81.583 8.87012 81.417 8.85059C81.2412 8.84082 81.0679 8.8335 80.897 8.82861C80.7261 8.82373 80.5527 8.80664 80.377 8.77734C80.1328 8.73828 79.874 8.71143 79.6006 8.69678C79.3271 8.68213 79.0586 8.66016 78.7949 8.63086C78.6484 8.62109 78.5068 8.604 78.3701 8.57959C78.2334 8.55518 78.0918 8.53809 77.9453 8.52832C77.7695 8.51855 77.5938 8.50879 77.418 8.49902C77.2422 8.48926 77.0664 8.47949 76.8906 8.46973C76.5098 8.44043 76.1313 8.41602 75.7554 8.39648C75.3794 8.37695 75.001 8.35254 74.6201 8.32324C74.0049 8.28418 73.3896 8.24023 72.7744 8.19141C72.1592 8.14258 71.5391 8.09375 70.9141 8.04492C70.6602 8.02539 70.377 8.0083 70.0645 7.99365C69.752 7.979 69.4297 7.9668 69.0977 7.95703H69.0244C68.7217 7.94727 68.375 7.93262 67.9844 7.91309C67.584 7.90332 67.1567 7.89355 66.7026 7.88379C66.2485 7.87402 65.7725 7.85938 65.2744 7.83984C64.7666 7.83008 64.2588 7.82031 63.751 7.81055H63.209C62.8281 7.80078 62.4229 7.79346 61.9932 7.78857C61.5635 7.78369 61.124 7.78125 60.6748 7.78125C60.3525 7.78125 60.0254 7.78125 59.6934 7.78125C59.3613 7.78125 59.0342 7.78613 58.7119 7.7959H58.8145C58.3945 7.80566 57.9795 7.80811 57.5693 7.80322C57.1592 7.79834 56.749 7.80078 56.3389 7.81055C55.7822 7.83008 55.2256 7.84473 54.6689 7.85449C54.1123 7.86426 53.5654 7.90332 53.0283 7.97168C52.8232 7.99121 52.6108 8.00586 52.3911 8.01562C52.1714 8.02539 51.9541 8.03516 51.7393 8.04492C51.6611 8.05469 51.5806 8.06201 51.4976 8.06689C51.4146 8.07178 51.334 8.0791 51.2559 8.08887C51.2168 8.08887 51.1729 8.09375 51.124 8.10352C51.0752 8.11328 51.041 8.11816 51.0215 8.11816C50.8262 8.04004 50.6211 8.01562 50.4062 8.04492C50.1914 8.07422 49.9814 8.08398 49.7764 8.07422C49.7666 8.07422 49.7544 8.07422 49.7397 8.07422C49.7251 8.07422 49.7129 8.07422 49.7031 8.07422C49.6641 8.07422 49.6226 8.07422 49.5786 8.07422C49.5347 8.07422 49.4932 8.0791 49.4541 8.08887H49.4688C49.0879 8.17676 48.6948 8.23291 48.2896 8.25732C47.8843 8.28174 47.4766 8.30371 47.0664 8.32324C46.8418 8.34277 46.6221 8.36719 46.4072 8.39648C46.1924 8.42578 45.9775 8.4502 45.7627 8.46973C45.333 8.51855 44.8984 8.5625 44.459 8.60156C44.0195 8.64062 43.5801 8.67969 43.1406 8.71875C42.9551 8.73828 42.7671 8.75537 42.5767 8.77002C42.3862 8.78467 42.1982 8.80176 42.0127 8.82129C41.8369 8.84082 41.6636 8.86035 41.4927 8.87988C41.3218 8.89941 41.1533 8.92383 40.9873 8.95312C40.6162 9.01172 40.2451 9.06787 39.874 9.12158C39.5029 9.17529 39.1318 9.23145 38.7607 9.29004C38.751 9.29004 38.7412 9.29248 38.7314 9.29736C38.7217 9.30225 38.7119 9.30469 38.7021 9.30469C38.4189 9.28516 38.1553 9.30225 37.9111 9.35596C37.667 9.40967 37.4131 9.44141 37.1494 9.45117C37.0029 9.45117 36.8662 9.46826 36.7393 9.50244C36.6123 9.53662 36.4756 9.56348 36.3291 9.58301C36.1045 9.62207 35.8726 9.65381 35.6333 9.67822C35.394 9.70264 35.1621 9.73438 34.9375 9.77344C34.498 9.85156 34.0586 9.92969 33.6191 10.0078C33.1797 10.0859 32.7354 10.1592 32.2861 10.2275C31.9736 10.2861 31.6611 10.335 31.3486 10.374C31.0361 10.4131 30.7236 10.4521 30.4111 10.4912C30.3135 10.5107 30.2207 10.5278 30.1328 10.5425C30.0449 10.5571 29.957 10.5693 29.8691 10.5791C29.6445 10.6279 29.4175 10.6743 29.188 10.7183C28.9585 10.7622 28.7314 10.8086 28.5068 10.8574C28.4971 10.8574 28.4873 10.8599 28.4775 10.8647C28.4678 10.8696 28.458 10.8721 28.4482 10.8721C28.126 10.8135 27.8501 10.8232 27.6206 10.9014C27.3911 10.9795 27.1494 11.0381 26.8955 11.0771C26.6318 11.1064 26.3828 11.1528 26.1484 11.2163C25.9141 11.2798 25.6748 11.3359 25.4307 11.3848C25.3623 11.4043 25.2842 11.4189 25.1963 11.4287C25.1084 11.4385 25.0156 11.4482 24.918 11.458H24.9033C24.6104 11.4873 24.3247 11.519 24.0464 11.5532C23.7681 11.5874 23.502 11.6387 23.248 11.707C23.0039 11.7754 22.7476 11.8389 22.479 11.8975C22.2104 11.9561 21.9395 12.0098 21.666 12.0586C21.0703 12.1465 20.5015 12.2588 19.9595 12.3955C19.4175 12.5322 18.8682 12.6641 18.3115 12.791C18.0381 12.8496 17.7744 12.9131 17.5205 12.9814C17.2666 13.0498 17.0176 13.1182 16.7734 13.1865C16.5977 13.2354 16.4097 13.2744 16.2095 13.3037C16.0093 13.333 15.8115 13.3672 15.6162 13.4062C15.5674 13.416 15.5186 13.4258 15.4697 13.4355C15.4209 13.4453 15.377 13.46 15.3379 13.4795C15.0449 13.6162 14.7129 13.7358 14.3418 13.8384C13.9707 13.9409 13.6045 14.0459 13.2432 14.1533C13.0479 14.2119 12.8647 14.2705 12.6938 14.3291C12.5229 14.3877 12.3105 14.4268 12.0566 14.4463C12.0273 14.4463 12.0005 14.4609 11.9761 14.4902C11.9517 14.5195 11.915 14.5488 11.8662 14.5781L12.4375 14.5488L11.7051 14.8564L10.2256 14.6807C10.3232 14.6221 10.4282 14.5732 10.5405 14.5342C10.6528 14.4951 10.6602 14.4463 10.5625 14.3877C10.7285 14.3779 10.8286 14.3682 10.8628 14.3584C10.897 14.3486 10.9385 14.3096 10.9873 14.2412L10.5186 14.3438L10.8262 14.0215C10.8652 14.0117 10.9067 14.0068 10.9507 14.0068C10.9946 14.0068 11.0459 14.002 11.1045 13.9922L10.9727 13.7725C10.9238 13.7725 10.8774 13.7749 10.8335 13.7798C10.7896 13.7847 10.7529 13.792 10.7236 13.8018C10.5088 13.8896 10.2939 13.9751 10.0791 14.0581C9.86426 14.1411 9.64453 14.2217 9.41992 14.2998C9.37109 14.3193 9.31494 14.334 9.25146 14.3438C9.18799 14.3535 9.12207 14.3584 9.05371 14.3584C9.03418 14.3584 9.01953 14.3584 9.00977 14.3584C9 14.3584 8.98535 14.3584 8.96582 14.3584H8.98047C8.80469 14.3486 8.65332 14.3584 8.52637 14.3877C8.39941 14.417 8.29688 14.4561 8.21875 14.5049C8.13086 14.5635 8.03564 14.6099 7.93311 14.644C7.83057 14.6782 7.7207 14.7002 7.60352 14.71C7.31055 14.7393 7.06152 14.7979 6.85645 14.8857C6.65137 14.9736 6.44629 15.0566 6.24121 15.1348C5.99707 15.2324 5.7627 15.3374 5.53809 15.4497C5.31348 15.562 5.09375 15.6719 4.87891 15.7793L4.08789 15.7354L4.57129 15.3984C4.69824 15.4082 4.81055 15.4229 4.9082 15.4424C5.00586 15.4619 5.0791 15.4619 5.12793 15.4424C5.21582 15.4326 5.27686 15.4106 5.31104 15.3765C5.34521 15.3423 5.31348 15.3008 5.21582 15.252C5.18652 15.2324 5.17432 15.2056 5.1792 15.1714C5.18408 15.1372 5.20117 15.1104 5.23047 15.0908C5.29883 15.042 5.37939 14.9956 5.47217 14.9517C5.56494 14.9077 5.65527 14.8613 5.74316 14.8125C6.13379 14.6172 6.41211 14.478 6.57812 14.395C6.74414 14.312 6.89062 14.2363 7.01758 14.168L6.49023 14.417C6.50977 14.4072 6.5293 14.395 6.54883 14.3804C6.56836 14.3657 6.58789 14.3584 6.60742 14.3584C6.89062 14.3389 7.08105 14.2803 7.17871 14.1826C7.27637 14.085 7.4375 13.9922 7.66211 13.9043L6.95898 13.9336C7.03711 13.8066 7.05908 13.731 7.0249 13.7065C6.99072 13.6821 6.83203 13.6602 6.54883 13.6406C6.5293 13.748 6.45605 13.8408 6.3291 13.9189C6.20215 13.9971 6.03125 14.0752 5.81641 14.1533C5.49414 14.251 5.18896 14.3608 4.90088 14.4829C4.61279 14.605 4.32227 14.7246 4.0293 14.8418C3.96094 14.8809 3.89502 14.9175 3.83154 14.9517C3.76807 14.9858 3.71191 15.0273 3.66309 15.0762V15.0615C3.5752 15.1396 3.46289 15.2031 3.32617 15.252C3.18945 15.3008 3.03809 15.335 2.87207 15.3545C2.59863 15.3838 2.41553 15.4375 2.32275 15.5156C2.22998 15.5938 2.13965 15.6719 2.05176 15.75C2.00293 15.7891 1.96631 15.8306 1.94189 15.8745C1.91748 15.9185 1.83203 15.9502 1.68555 15.9697C1.57812 15.8916 1.56592 15.8184 1.64893 15.75C1.73193 15.6816 1.79785 15.6133 1.84668 15.5449C1.87598 15.4863 1.88574 15.4351 1.87598 15.3911C1.86621 15.3472 1.83691 15.3008 1.78809 15.252C2.22754 15.2324 2.49609 15.2007 2.59375 15.1567C2.69141 15.1128 2.77441 14.9932 2.84277 14.7979L2.08105 14.7539L1.72949 14.4316L1.36328 14.4023C1.36328 14.3926 1.36084 14.3828 1.35596 14.373C1.35107 14.3633 1.34863 14.3535 1.34863 14.3438C1.40723 14.2949 1.46582 14.2437 1.52441 14.1899C1.58301 14.1362 1.63184 14.085 1.6709 14.0361C1.70996 13.9775 1.76611 13.9287 1.83936 13.8896C1.9126 13.8506 2.00293 13.8164 2.11035 13.7871C2.30566 13.7285 2.47168 13.6602 2.6084 13.582C2.74512 13.5039 2.83789 13.416 2.88672 13.3184C2.79883 13.2988 2.69629 13.2793 2.5791 13.2598C2.46191 13.2402 2.40332 13.2207 2.40332 13.2012C2.40332 13.1523 2.43262 13.106 2.49121 13.062C2.5498 13.0181 2.59863 12.9766 2.6377 12.9375C2.66699 12.918 2.69141 12.896 2.71094 12.8716C2.73047 12.8472 2.73535 12.8154 2.72559 12.7764C2.46191 12.8643 2.18848 12.9424 1.90527 13.0107C1.62207 13.0791 1.42188 13.1914 1.30469 13.3477C1.25586 13.416 1.146 13.4453 0.975098 13.4355C0.804199 13.4258 0.611328 13.3818 0.396484 13.3037C0.464844 13.1963 0.567383 13.0938 0.704102 12.9961C0.84082 12.8984 1.00195 12.8057 1.1875 12.7178C1.40234 12.6201 1.62451 12.5225 1.854 12.4248C2.0835 12.3271 2.2666 12.2148 2.40332 12.0879C2.47168 12.0195 2.57178 11.9585 2.70361 11.9048C2.83545 11.8511 2.9502 11.79 3.04785 11.7217C3.12598 11.6729 3.18701 11.6216 3.23096 11.5679C3.2749 11.5142 3.27246 11.4531 3.22363 11.3848C3.16504 11.3066 3.18945 11.2627 3.29688 11.2529C3.4043 11.2432 3.53125 11.248 3.67773 11.2676C3.67773 11.2383 3.68018 11.2139 3.68506 11.1943C3.68994 11.1748 3.68262 11.1553 3.66309 11.1357C3.58496 11.0674 3.49951 11.0308 3.40674 11.0259C3.31396 11.021 3.20898 11.043 3.0918 11.0918C3.01367 11.1211 2.93799 11.1528 2.86475 11.187C2.7915 11.2212 2.71582 11.2529 2.6377 11.2822L2.52051 11.2383C2.62793 11.1895 2.73047 11.1357 2.82812 11.0771C2.92578 11.0186 3.0332 10.9648 3.15039 10.916C3.25781 10.8672 3.34814 10.8208 3.42139 10.7769C3.49463 10.7329 3.49707 10.6719 3.42871 10.5938C3.38965 10.5547 3.40918 10.5034 3.4873 10.4399C3.56543 10.3765 3.63379 10.3105 3.69238 10.2422L4.17578 10.374C4.22461 10.3447 4.27832 10.313 4.33691 10.2788C4.39551 10.2446 4.44434 10.208 4.4834 10.1689C4.52246 10.1396 4.54932 10.103 4.56396 10.0591C4.57861 10.0151 4.61523 9.97852 4.67383 9.94922C4.89844 9.87109 5.10107 9.78809 5.28174 9.7002C5.4624 9.6123 5.64551 9.51953 5.83105 9.42188C5.85059 9.41211 5.89453 9.40723 5.96289 9.40723C6.03125 9.40723 6.09961 9.40723 6.16797 9.40723L6.02148 9.23145C6.06055 9.22168 6.09229 9.21191 6.1167 9.20215C6.14111 9.19238 6.16797 9.1875 6.19727 9.1875C6.5 9.1582 6.76123 9.10938 6.98096 9.04102C7.20068 8.97266 7.39355 8.88477 7.55957 8.77734C7.58887 8.75781 7.6084 8.73828 7.61816 8.71875C7.62793 8.69922 7.6377 8.67969 7.64746 8.66016C7.65723 8.65039 7.65967 8.6333 7.65479 8.60889C7.6499 8.58447 7.65723 8.57227 7.67676 8.57227C7.91113 8.5332 8.08936 8.46729 8.21143 8.37451C8.3335 8.28174 8.49219 8.20605 8.6875 8.14746C9.27344 7.97168 9.85205 7.78857 10.4233 7.59814C10.9946 7.40771 11.5684 7.21973 12.1445 7.03418C12.4473 6.94629 12.7476 6.85352 13.0454 6.75586C13.3433 6.6582 13.6436 6.56055 13.9463 6.46289C14.0342 6.44336 14.1318 6.42383 14.2393 6.4043C14.3467 6.38477 14.4492 6.36035 14.5469 6.33105C14.8105 6.25293 15.0693 6.17725 15.3232 6.104C15.5771 6.03076 15.8311 5.95508 16.085 5.87695C16.3584 5.95508 16.5391 5.99658 16.627 6.00146C16.7148 6.00635 16.8711 5.97949 17.0957 5.9209C16.9785 5.83301 16.9321 5.75244 16.9565 5.6792C16.981 5.60596 17.1055 5.54492 17.3301 5.49609L16.876 5.55469L16.8027 5.49609L17.5352 5.32031L17.623 5.36426L17.3887 5.4668C17.4961 5.4668 17.6035 5.46436 17.7109 5.45947C17.8184 5.45459 17.9209 5.45215 18.0186 5.45215C18.1162 5.44238 18.2041 5.4375 18.2822 5.4375C18.3604 5.4375 18.4043 5.40332 18.4141 5.33496C18.4141 5.3252 18.4678 5.30811 18.5752 5.28369C18.6826 5.25928 18.7656 5.25195 18.8242 5.26172C19 5.29102 19.1025 5.28369 19.1318 5.23975C19.1611 5.1958 19.2051 5.1543 19.2637 5.11523C19.3125 5.13477 19.3613 5.15186 19.4102 5.1665C19.459 5.18115 19.5029 5.19336 19.542 5.20312C19.6494 5.26172 19.7593 5.30322 19.8716 5.32764C19.9839 5.35205 20.1133 5.3252 20.2598 5.24707C20.3086 5.22754 20.355 5.21289 20.3989 5.20312C20.4429 5.19336 20.4893 5.18848 20.5381 5.18848C20.5381 5.18848 20.5405 5.18848 20.5454 5.18848C20.5503 5.18848 20.5527 5.18848 20.5527 5.18848C20.8359 5.18848 21.0752 5.15674 21.2705 5.09326C21.4658 5.02979 21.6562 4.96875 21.8418 4.91016C21.8418 4.85156 21.8296 4.79297 21.8052 4.73438C21.7808 4.67578 21.793 4.62695 21.8418 4.58789C21.9199 4.54883 22.0273 4.51709 22.1641 4.49268C22.3008 4.46826 22.4277 4.44141 22.5449 4.41211H22.5596H22.5889V4.42676L23.0723 4.48535C23.0332 4.45605 23.0039 4.4292 22.9844 4.40479C22.9648 4.38037 22.9404 4.3584 22.9111 4.33887L23.5703 4.19238L23.8633 4.45605C24.2539 4.41699 24.625 4.36572 24.9766 4.30225C25.3281 4.23877 25.6943 4.17285 26.0752 4.10449L25.7676 3.9873C25.8555 3.97754 25.9434 3.96289 26.0312 3.94336C26.1191 3.92383 26.1875 3.91895 26.2363 3.92871C26.4023 3.95801 26.5293 3.95801 26.6172 3.92871C26.7051 3.89941 26.7832 3.85547 26.8516 3.79688C27.0859 3.86523 27.2959 3.88232 27.4814 3.84814C27.667 3.81396 27.8428 3.7627 28.0088 3.69434C28.1846 3.72363 28.3457 3.73828 28.4922 3.73828C28.6387 3.73828 28.79 3.69922 28.9463 3.62109C29.0439 3.57227 29.1807 3.53809 29.3564 3.51855C29.5322 3.49902 29.6934 3.47461 29.8398 3.44531C29.9668 3.42578 30.0962 3.40625 30.228 3.38672C30.3599 3.36719 30.4844 3.33789 30.6016 3.29883C30.6797 3.2793 30.7505 3.26465 30.814 3.25488C30.8774 3.24512 30.958 3.25 31.0557 3.26953C31.1631 3.28906 31.2583 3.2915 31.3413 3.27686C31.4243 3.26221 31.4951 3.23535 31.5537 3.19629C31.7002 3.09863 31.8882 3.04492 32.1177 3.03516C32.3472 3.02539 32.5742 3.01562 32.7988 3.00586C32.8965 2.99609 32.999 2.99121 33.1064 2.99121C33.2139 2.99121 33.3115 2.98145 33.3994 2.96191C33.8486 2.89355 34.2979 2.82031 34.7471 2.74219C35.1963 2.66406 35.665 2.62012 36.1533 2.61035C36.3584 2.60059 36.5635 2.58105 36.7686 2.55176C36.9736 2.52246 37.1836 2.53223 37.3984 2.58105C37.5938 2.52246 37.8208 2.50049 38.0796 2.51514C38.3384 2.52979 38.541 2.47363 38.6875 2.34668C38.7363 2.29785 38.8193 2.27832 38.9365 2.28809C39.0537 2.29785 39.1562 2.32227 39.2441 2.36133C39.3516 2.40039 39.4443 2.41748 39.5225 2.4126C39.6006 2.40771 39.6787 2.38086 39.7568 2.33203C39.8057 2.30273 39.8569 2.27832 39.9106 2.25879C39.9644 2.23926 40.0254 2.22949 40.0938 2.22949C40.3281 2.20996 40.5625 2.19043 40.7969 2.1709C41.0312 2.15137 41.2705 2.15625 41.5146 2.18555C41.5928 2.18555 41.6636 2.18799 41.7271 2.19287C41.7905 2.19775 41.8564 2.17578 41.9248 2.12695C41.9736 2.09766 42.0664 2.08057 42.2031 2.07568C42.3398 2.0708 42.4619 2.06348 42.5693 2.05371C42.8037 2.03418 43.0405 2.01709 43.2798 2.00244C43.519 1.98779 43.7656 1.9707 44.0195 1.95117C44.127 2.04883 44.2832 2.08789 44.4883 2.06836C44.6934 2.04883 44.8838 2.03418 45.0596 2.02441C45.3721 2.00488 45.6821 1.97803 45.9897 1.94385C46.2974 1.90967 46.6074 1.87793 46.9199 1.84863C47.125 1.8291 47.3301 1.81445 47.5352 1.80469C47.7402 1.79492 47.9502 1.78516 48.165 1.77539C48.7119 1.75586 49.2612 1.74121 49.813 1.73145C50.3647 1.72168 50.9141 1.71191 51.4609 1.70215C52.0469 1.69238 52.6304 1.6875 53.2114 1.6875C53.7925 1.6875 54.376 1.6875 54.9619 1.6875C55.4795 1.6875 55.9946 1.68994 56.5073 1.69482C57.02 1.69971 57.5303 1.70703 58.0381 1.7168C58.3115 1.72656 58.5874 1.73633 58.8657 1.74609C59.144 1.75586 59.4199 1.76562 59.6934 1.77539C60.3184 1.78516 60.9458 1.80225 61.5757 1.82666C62.2056 1.85107 62.8281 1.89258 63.4434 1.95117C63.668 1.9707 63.8926 1.98535 64.1172 1.99512C64.3418 2.00488 64.5762 2.00488 64.8203 1.99512C64.957 1.99512 65.0962 2.00732 65.2378 2.03174C65.3794 2.05615 65.5234 2.07324 65.6699 2.08301C66.0703 2.1123 66.4707 2.13428 66.8711 2.14893C67.2715 2.16357 67.6719 2.18555 68.0723 2.21484C68.541 2.25391 69.0049 2.29297 69.4639 2.33203C69.9229 2.37109 70.3818 2.41016 70.8408 2.44922C71.1533 2.46875 71.4658 2.49316 71.7783 2.52246C72.0908 2.55176 72.4033 2.58105 72.7158 2.61035C73.0381 2.63965 73.3604 2.66895 73.6826 2.69824C74.0049 2.72754 74.3223 2.76172 74.6348 2.80078C75.1914 2.86914 75.7432 2.93994 76.29 3.01318C76.8369 3.08643 77.3838 3.15723 77.9307 3.22559C78.458 3.30371 78.9829 3.38184 79.5054 3.45996C80.0278 3.53809 80.5527 3.61621 81.0801 3.69434C81.3535 3.74316 81.6318 3.78711 81.915 3.82617C82.1982 3.86523 82.4766 3.91406 82.75 3.97266H82.3105C82.5059 4.08984 82.6816 4.16064 82.8379 4.18506C82.9941 4.20947 83.2334 4.20215 83.5557 4.16309C83.5947 4.20215 83.624 4.24365 83.6436 4.2876C83.6631 4.33154 83.7607 4.34863 83.9365 4.33887L84.0684 4.16309C84.1562 4.2998 84.2856 4.40479 84.4565 4.47803C84.6274 4.55127 84.8447 4.60254 85.1084 4.63184C85.1084 4.63184 85.1084 4.63428 85.1084 4.63916C85.1084 4.64404 85.1084 4.64648 85.1084 4.64648C85.1572 4.65625 85.2085 4.66846 85.2622 4.68311C85.3159 4.69775 85.3525 4.71484 85.3721 4.73438C85.4209 4.77344 85.4624 4.81494 85.4966 4.85889C85.5308 4.90283 85.5771 4.95898 85.6357 5.02734L86.1777 4.89551C86.2656 4.90527 86.3853 4.92725 86.5366 4.96143C86.688 4.99561 86.8467 5.02734 87.0127 5.05664C87.374 5.10547 87.7134 5.17139 88.0308 5.25439C88.3481 5.3374 88.6631 5.41797 88.9756 5.49609C89.2393 5.55469 89.5103 5.61084 89.7886 5.66455C90.0669 5.71826 90.3379 5.77441 90.6016 5.83301C90.9043 5.90137 91.2144 5.96484 91.5317 6.02344C91.8491 6.08203 92.125 6.16016 92.3594 6.25781C92.5449 6.33594 92.7598 6.39697 93.0039 6.44092C93.248 6.48486 93.4189 6.56543 93.5166 6.68262C93.2236 6.79004 92.9575 6.81201 92.7183 6.74854C92.479 6.68506 92.2275 6.63379 91.9639 6.59473C92.0811 6.63379 92.1494 6.68262 92.1689 6.74121C92.1885 6.7998 92.2617 6.83887 92.3887 6.8584C92.5156 6.8877 92.6523 6.90967 92.7988 6.92432C92.9453 6.93896 93.1016 6.95605 93.2676 6.97559C93.1797 7.09277 93.1943 7.18555 93.3115 7.25391C93.4287 7.32227 93.624 7.37598 93.8975 7.41504L94.5273 7.19531L94.3516 7.01953L95.3477 7.04883C95.3086 7.10742 95.2744 7.16113 95.2451 7.20996C95.2158 7.25879 95.3184 7.28809 95.5527 7.29785L94.8496 7.62012C95.0449 7.71777 95.2549 7.76172 95.4795 7.75195C95.7041 7.74219 95.9141 7.7373 96.1094 7.7373L97.8086 8.25C97.7695 8.26953 97.7402 8.28418 97.7207 8.29395C97.7012 8.30371 97.6816 8.31348 97.6621 8.32324C97.584 8.34277 97.5132 8.3623 97.4497 8.38184C97.3862 8.40137 97.3838 8.43555 97.4424 8.48438C97.501 8.52344 97.5791 8.55029 97.6768 8.56494C97.7744 8.57959 97.8574 8.56738 97.9258 8.52832C98.0332 8.47949 98.1357 8.4624 98.2334 8.47705C98.3311 8.4917 98.4336 8.49902 98.541 8.49902C98.6582 8.50879 98.7803 8.51123 98.9072 8.50635C99.0342 8.50146 99.1611 8.49902 99.2881 8.49902C99.3369 8.49902 99.3906 8.50635 99.4492 8.521C99.5078 8.53564 99.5664 8.54785 99.625 8.55762C99.332 8.64551 99.1733 8.71875 99.1489 8.77734C99.1245 8.83594 99.21 8.93848 99.4053 9.08496C99.5518 9.06543 99.7007 9.04834 99.8521 9.03369C100.003 9.01904 100.152 9.04102 100.299 9.09961C100.328 9.11914 100.382 9.12402 100.46 9.11426C100.538 9.10449 100.606 9.09961 100.665 9.09961C100.948 9.08984 101.161 9.10938 101.302 9.1582C101.444 9.20703 101.52 9.29004 101.529 9.40723C101.539 9.53418 101.578 9.61719 101.646 9.65625C101.715 9.69531 101.876 9.73438 102.13 9.77344C102.071 9.85156 102.013 9.89795 101.954 9.9126C101.896 9.92725 101.812 9.91992 101.705 9.89062C101.314 9.77344 100.929 9.65869 100.548 9.54639C100.167 9.43408 99.7861 9.31934 99.4053 9.20215C99.3271 9.17285 99.2393 9.14844 99.1416 9.12891C99.0439 9.10938 98.9268 9.08008 98.79 9.04102L98.7607 9.30469C98.8096 9.31445 98.8462 9.32422 98.8706 9.33398C98.895 9.34375 98.917 9.34375 98.9365 9.33398C99.1025 9.33398 99.2441 9.34863 99.3613 9.37793C99.4785 9.40723 99.6006 9.45117 99.7275 9.50977C99.9229 9.59766 100.145 9.6709 100.394 9.72949C100.643 9.78809 100.88 9.85645 101.104 9.93457C101.632 10.1201 102.171 10.3008 102.723 10.4766C103.275 10.6523 103.771 10.8525 104.21 11.0771C104.396 11.1846 104.596 11.2847 104.811 11.3774C105.025 11.4702 105.23 11.5654 105.426 11.6631C105.494 11.6924 105.558 11.7266 105.616 11.7656C105.675 11.8047 105.729 11.8438 105.777 11.8828C105.865 11.9609 105.938 12.0122 105.997 12.0366C106.056 12.061 106.227 12.1025 106.51 12.1611C106.559 12.083 106.544 12.0171 106.466 11.9634C106.388 11.9097 106.314 11.8584 106.246 11.8096C106.09 11.7021 105.914 11.5996 105.719 11.502C105.523 11.4043 105.338 11.3018 105.162 11.1943C104.84 10.999 104.474 10.8257 104.063 10.6743C103.653 10.5229 103.238 10.374 102.818 10.2275C102.75 10.1982 102.682 10.1738 102.613 10.1543C102.545 10.1348 102.496 10.1055 102.467 10.0664C102.428 10.0371 102.411 10.0054 102.416 9.97119C102.42 9.93701 102.418 9.89551 102.408 9.84668C102.633 9.91504 102.84 9.97363 103.031 10.0225C103.221 10.0713 103.395 10.125 103.551 10.1836C103.727 10.252 103.89 10.3276 104.042 10.4106C104.193 10.4937 104.342 10.5791 104.488 10.667C104.693 10.7646 104.894 10.8672 105.089 10.9746C105.284 11.082 105.47 11.1943 105.646 11.3115C105.89 11.458 106.126 11.6094 106.356 11.7656C106.585 11.9219 106.817 12.083 107.052 12.249L106.568 12.3223L107.257 12.9229L106.744 12.9375L107.286 13.2158L107.477 13.084C107.652 13.1523 107.718 13.2085 107.674 13.2524C107.63 13.2964 107.54 13.3379 107.403 13.377C107.53 13.4746 107.655 13.5698 107.777 13.6626C107.899 13.7554 108.019 13.8506 108.136 13.9482C108.146 13.9385 108.16 13.9336 108.18 13.9336C108.199 13.9336 108.219 13.9287 108.238 13.9189V13.7285C108.58 13.7871 108.68 13.875 108.539 13.9922C108.397 14.1094 108.424 14.2021 108.619 14.2705ZM2.87207 14.7832C3.02832 14.793 3.15039 14.7832 3.23828 14.7539C3.32617 14.7246 3.39453 14.6758 3.44336 14.6074C3.19922 14.6367 3.05273 14.6587 3.00391 14.6733C2.95508 14.688 2.91113 14.7246 2.87207 14.7832ZM3.95605 10.7256L4.11719 10.7695L4.43945 10.5498C4.2832 10.5596 4.15381 10.5767 4.05127 10.6011C3.94873 10.6255 3.91699 10.667 3.95605 10.7256ZM7.14941 9.42188L7.2373 9.46582L8.27734 9.04102C8.01367 9.05078 7.78906 9.09229 7.60352 9.16553C7.41797 9.23877 7.2666 9.32422 7.14941 9.42188ZM8.10156 13.626L7.94043 13.6846L8.16016 13.8018L8.33594 13.7285C8.43359 13.7773 8.4751 13.7969 8.46045 13.7871C8.4458 13.7773 8.41895 13.7627 8.37988 13.7432L8.10156 13.626ZM9.00977 8.63086C8.9707 8.65039 8.9292 8.66748 8.88525 8.68213C8.84131 8.69678 8.79492 8.71387 8.74609 8.7334C8.74609 8.7334 8.75586 8.74072 8.77539 8.75537C8.79492 8.77002 8.80469 8.77246 8.80469 8.7627C8.86328 8.75293 8.91943 8.74316 8.97314 8.7334C9.02686 8.72363 9.07812 8.71387 9.12695 8.7041L9.00977 8.63086ZM11.3096 14.5635C11.2705 14.5732 11.2339 14.583 11.1997 14.5928C11.1655 14.6025 11.1484 14.6074 11.1484 14.6074C11.1484 14.6172 11.1558 14.6294 11.1704 14.644C11.1851 14.6587 11.2021 14.6709 11.2217 14.6807C11.2412 14.6807 11.2681 14.6782 11.3022 14.6733C11.3364 14.6685 11.3633 14.666 11.3828 14.666L11.3096 14.5635ZM21.4316 5.20312C21.3828 5.21289 21.3413 5.22998 21.3071 5.25439C21.2729 5.27881 21.251 5.30078 21.2412 5.32031C21.2412 5.33984 21.2607 5.36182 21.2998 5.38623C21.3389 5.41064 21.3779 5.42285 21.417 5.42285C21.4756 5.42285 21.5317 5.41797 21.5854 5.4082C21.6392 5.39844 21.6904 5.38379 21.7393 5.36426H21.7246C21.793 5.34473 21.854 5.32275 21.9077 5.29834C21.9614 5.27393 22.0176 5.25195 22.0762 5.23242C21.8613 5.19336 21.7222 5.17139 21.6587 5.1665C21.5952 5.16162 21.5195 5.17383 21.4316 5.20312ZM22.5596 4.4707L22.4424 4.70508C22.4717 4.70508 22.501 4.70508 22.5303 4.70508C22.5596 4.70508 22.5889 4.70508 22.6182 4.70508L22.5596 4.4707ZM80.8896 3.78223L80.8311 3.84082L81.6221 3.97266C81.5537 3.88477 81.4438 3.84082 81.2925 3.84082C81.1411 3.84082 81.0068 3.82129 80.8896 3.78223ZM86.9688 5.4082L86.5732 5.58398C86.6611 5.60352 86.7417 5.62061 86.8149 5.63525C86.8882 5.6499 86.9541 5.66699 87.0127 5.68652C87.0713 5.70605 87.1274 5.72803 87.1812 5.75244C87.2349 5.77686 87.2861 5.79883 87.335 5.81836L87.4375 5.78906C87.3594 5.73047 87.2837 5.66943 87.2104 5.60596C87.1372 5.54248 87.0566 5.47656 86.9688 5.4082ZM88.3604 5.8623C88.5264 5.90137 88.6411 5.91113 88.7046 5.8916C88.7681 5.87207 88.7949 5.82812 88.7852 5.75977L88.3604 5.8623ZM94.7764 10.4473C94.5811 10.3984 94.3979 10.3545 94.2271 10.3154C94.0562 10.2764 93.8877 10.2422 93.7217 10.2129C93.6924 10.2031 93.6509 10.2056 93.5972 10.2202C93.5435 10.2349 93.4873 10.2471 93.4287 10.2568C93.6045 10.335 93.812 10.3911 94.0513 10.4253C94.2905 10.4595 94.5322 10.4668 94.7764 10.4473ZM93.4434 7.85449C93.5605 7.89355 93.6558 7.92285 93.729 7.94238C93.8022 7.96191 93.873 7.98145 93.9414 8.00098C93.9512 7.93262 93.917 7.88867 93.8389 7.86914C93.7607 7.84961 93.6289 7.84473 93.4434 7.85449ZM94.0293 8.05957L93.9121 8.07422C93.9414 8.09375 93.9658 8.11328 93.9854 8.13281C94.0049 8.15234 94.0293 8.17188 94.0586 8.19141C94.0781 8.18164 94.0977 8.17676 94.1172 8.17676C94.1367 8.17676 94.1514 8.17188 94.1611 8.16211L94.0293 8.05957ZM94.835 8.01562C94.7959 7.99609 94.7251 7.98145 94.6226 7.97168C94.52 7.96191 94.4053 7.95215 94.2783 7.94238L94.6006 8.2793C94.6689 8.23047 94.7471 8.18652 94.835 8.14746C94.9229 8.1084 94.9229 8.06445 94.835 8.01562ZM96.5928 7.98633C96.5635 7.98633 96.5293 7.98633 96.4902 7.98633C96.4512 7.98633 96.4121 7.98633 96.373 7.98633L96.4609 8.16211H96.5928V7.98633ZM96.959 8.7334L96.8857 8.79199L97.1787 8.87988L97.2812 8.82129L96.959 8.7334ZM97.7061 11.3994C97.7158 11.3994 97.7305 11.3945 97.75 11.3848C97.7695 11.375 97.7988 11.3652 97.8379 11.3555L97.4717 11.2383C97.4229 11.3066 97.4253 11.3506 97.479 11.3701C97.5327 11.3896 97.6084 11.3994 97.7061 11.3994ZM97.9844 8.90918C97.9453 8.89941 97.9062 8.89697 97.8672 8.90186C97.8281 8.90674 97.7891 8.90918 97.75 8.90918C97.75 8.90918 97.7476 8.91162 97.7427 8.9165C97.7378 8.92139 97.7354 8.92871 97.7354 8.93848V8.95312C97.7939 8.96289 97.8525 8.97266 97.9111 8.98242C97.9697 8.99219 98.0283 9.00195 98.0869 9.01172L98.1455 8.96777C98.126 8.95801 98.1016 8.9458 98.0723 8.93115C98.043 8.9165 98.0137 8.90918 97.9844 8.90918ZM98.5117 9.05566C98.3555 9.09473 98.2773 9.13379 98.2773 9.17285C98.2773 9.21191 98.3262 9.26074 98.4238 9.31934C98.541 9.27051 98.6069 9.22656 98.6216 9.1875C98.6362 9.14844 98.5996 9.10449 98.5117 9.05566ZM99.4199 11.4141C99.166 11.3555 98.9121 11.3018 98.6582 11.2529C98.4043 11.2041 98.1504 11.1553 97.8965 11.1064C97.877 11.1064 97.8452 11.1187 97.8013 11.1431C97.7573 11.1675 97.7012 11.1943 97.6328 11.2236C97.8574 11.2236 98.0503 11.2261 98.2114 11.231C98.3726 11.2358 98.4775 11.2822 98.5264 11.3701L98.3213 11.5166C98.5361 11.5752 98.7461 11.5947 98.9512 11.5752C99.1562 11.5557 99.3613 11.541 99.5664 11.5312C99.5469 11.5117 99.5273 11.4897 99.5078 11.4653C99.4883 11.4409 99.459 11.4238 99.4199 11.4141ZM99.625 11.5459C99.8203 11.624 100.018 11.6973 100.218 11.7656C100.418 11.834 100.533 11.9268 100.562 12.0439C100.67 12.0439 100.77 12.0391 100.863 12.0293C100.956 12.0195 101.041 12.0195 101.119 12.0293C101.207 12.0391 101.297 12.0586 101.39 12.0879C101.483 12.1172 101.588 12.1465 101.705 12.1758C101.559 11.9902 101.322 11.8486 100.995 11.751C100.667 11.6533 100.211 11.585 99.625 11.5459ZM102.13 12.0879L101.998 12.3809L102.584 12.293C102.525 12.2539 102.477 12.21 102.438 12.1611C102.398 12.1123 102.296 12.0879 102.13 12.0879ZM102.628 12.293C102.657 12.332 102.687 12.3735 102.716 12.4175C102.745 12.4614 102.784 12.498 102.833 12.5273C102.921 12.5859 103.021 12.6104 103.133 12.6006C103.246 12.5908 103.346 12.5469 103.434 12.4688L102.628 12.293ZM106.217 13.6553C106.021 13.5576 105.814 13.4648 105.594 13.377C105.375 13.2891 105.157 13.1963 104.942 13.0986L104.84 13.1133C104.859 13.1523 104.874 13.189 104.884 13.2231C104.894 13.2573 104.923 13.2891 104.972 13.3184C105.138 13.416 105.309 13.5112 105.484 13.604C105.66 13.6968 105.836 13.792 106.012 13.8896C106.041 13.8994 106.078 13.9116 106.122 13.9263C106.166 13.9409 106.212 13.9531 106.261 13.9629C106.368 13.9043 106.405 13.8481 106.371 13.7944C106.336 13.7407 106.285 13.6943 106.217 13.6553ZM1.31934 15.1201L1.77344 15.252L1.08496 15.3984L1.31934 15.1201ZM85.1084 4.63184L85.2256 4.42676C85.2939 4.46582 85.3037 4.50244 85.2549 4.53662C85.2061 4.5708 85.1572 4.60254 85.1084 4.63184ZM101.998 9.6123C102.008 9.6123 102.018 9.60986 102.027 9.60498C102.037 9.6001 102.047 9.59277 102.057 9.58301L102.276 9.6416L102.232 9.6709L101.998 9.6123ZM98.3652 8.17676L98.7021 8.08887L98.79 8.14746L98.4678 8.23535L98.3652 8.17676ZM93.5166 6.8584C93.5459 6.7998 93.6045 6.77051 93.6924 6.77051C93.7803 6.77051 93.8779 6.77051 93.9854 6.77051L93.8828 7.00488L93.5166 6.8584ZM92.1104 5.8623V5.83301L92.3887 5.87695L92.3594 5.90625L92.1104 5.8623ZM91.0996 5.61328L90.3232 5.4668C90.3428 5.4668 90.3623 5.4668 90.3818 5.4668C90.4014 5.4668 90.4209 5.4668 90.4404 5.4668C90.5576 5.4668 90.6724 5.479 90.7847 5.50342C90.897 5.52783 91.002 5.56445 91.0996 5.61328ZM87.8623 4.96875L87.9355 4.9248L89.2686 5.17383C89.2588 5.18359 89.2466 5.19336 89.2319 5.20312C89.2173 5.21289 89.2051 5.22266 89.1953 5.23242L87.8623 4.96875ZM86.5293 4.67578L85.8555 4.58789C86.002 4.54883 86.1265 4.54395 86.229 4.57324C86.3315 4.60254 86.4316 4.63672 86.5293 4.67578ZM76.29 2.36133L76.334 2.30273L76.6855 2.36133L76.6562 2.39062L76.29 2.36133ZM73.5947 2.02441L73.624 1.98047C73.9658 2 74.2979 2.02686 74.6201 2.06104C74.9424 2.09521 75.2549 2.13672 75.5576 2.18555L75.4551 2.1709L75.4111 2.22949L73.5947 2.02441ZM71.8809 1.86328L71.9248 1.79004L72.9062 1.87793L72.8623 1.93652L71.8809 1.86328ZM70.709 1.67285L71.4414 1.76074C71.2852 1.78027 71.1753 1.7876 71.1118 1.78271C71.0483 1.77783 70.9141 1.74121 70.709 1.67285ZM68.6436 1.58496L68.7021 1.49707C68.8975 1.5166 69.0952 1.53613 69.2954 1.55566C69.4956 1.5752 69.6934 1.58984 69.8887 1.59961L69.874 1.6582C69.6689 1.63867 69.4639 1.62402 69.2588 1.61426C69.0537 1.60449 68.8486 1.59473 68.6436 1.58496ZM67.9258 1.51172C67.9355 1.50195 67.9429 1.49219 67.9478 1.48242C67.9526 1.47266 67.9551 1.46289 67.9551 1.45312L68.292 1.49707L68.2773 1.52637C68.2188 1.52637 68.1602 1.52393 68.1016 1.51904C68.043 1.51416 67.9844 1.51172 67.9258 1.51172ZM65.9922 1.36523V1.32129C66.1875 1.33105 66.3828 1.34082 66.5781 1.35059C66.7734 1.36035 66.9639 1.37012 67.1494 1.37988V1.43848L65.9922 1.36523ZM64.6885 1.32129L64.7031 1.24805L65.1133 1.27734V1.30664L64.6885 1.32129ZM60.3818 1.13086C60.2549 1.12109 60.1279 1.11865 60.001 1.12354C59.874 1.12842 59.7471 1.12598 59.6201 1.11621C59.2881 1.11621 58.9585 1.11133 58.6313 1.10156C58.3042 1.0918 57.9795 1.08691 57.6572 1.08691C57.4814 1.07715 57.2959 1.07227 57.1006 1.07227C56.9053 1.07227 56.7051 1.07227 56.5 1.07227C56.4121 1.07227 56.3267 1.07227 56.2437 1.07227C56.1606 1.07227 56.0752 1.07227 55.9873 1.07227H56.0166C55.5576 1.08203 55.1011 1.08936 54.647 1.09424C54.1929 1.09912 53.7363 1.09668 53.2773 1.08691C53.082 1.08691 52.8867 1.08691 52.6914 1.08691C52.4961 1.08691 52.3008 1.10156 52.1055 1.13086C52.0957 1.13086 52.0884 1.13086 52.0835 1.13086C52.0786 1.13086 52.0713 1.13086 52.0615 1.13086C52.0029 1.13086 51.9468 1.12354 51.8931 1.10889C51.8394 1.09424 51.7881 1.07715 51.7393 1.05762H51.7539C52.7988 1.02832 53.8438 1.00879 54.8887 0.999023C55.9336 0.989258 56.9761 0.991699 58.0161 1.00635C59.0562 1.021 60.0986 1.04297 61.1436 1.07227C62.1787 1.11133 63.2139 1.16016 64.249 1.21875V1.29199C63.6045 1.2627 62.96 1.2334 62.3154 1.2041C61.6709 1.1748 61.0264 1.15039 60.3818 1.13086ZM49.0146 1.14551C49.2295 1.09668 49.5615 1.06494 50.0107 1.05029C50.46 1.03564 50.7969 1.04785 51.0215 1.08691C50.4941 1.16504 50.1304 1.21387 49.9302 1.2334C49.73 1.25293 49.4248 1.22363 49.0146 1.14551ZM48.2822 1.1748C48.2822 1.16504 48.2822 1.15527 48.2822 1.14551C48.2822 1.13574 48.2822 1.12598 48.2822 1.11621L48.6045 1.13086C48.6045 1.14062 48.6021 1.15283 48.5972 1.16748C48.5923 1.18213 48.5898 1.18945 48.5898 1.18945C48.541 1.18945 48.4897 1.18701 48.436 1.18213C48.3823 1.17725 48.3311 1.1748 48.2822 1.1748ZM46.2607 1.24805L46.9199 1.1748C46.8027 1.2334 46.7173 1.26514 46.6636 1.27002C46.6099 1.2749 46.4756 1.26758 46.2607 1.24805ZM41.8662 1.55566L41.8369 1.7168C41.7588 1.6582 41.7197 1.62158 41.7197 1.60693C41.7197 1.59229 41.7686 1.5752 41.8662 1.55566ZM39.8154 1.90723C39.8252 1.91699 39.7983 1.92676 39.7349 1.93652C39.6714 1.94629 39.6006 1.95605 39.5225 1.96582L39.4932 1.74609L40.5771 1.61426L40.6211 1.67285C40.5625 1.68262 40.5039 1.69238 40.4453 1.70215C40.3867 1.71191 40.3232 1.72168 40.2549 1.73145C40.1377 1.74121 40.0254 1.75342 39.918 1.76807C39.8105 1.78271 39.7764 1.8291 39.8154 1.90723ZM38.7607 2.00977L38.8486 1.86328C38.917 1.93164 38.9463 1.9707 38.9365 1.98047C38.9268 1.99023 38.8682 2 38.7607 2.00977ZM38.7314 2.00977H38.7607L38.7461 2.02441L38.7314 2.00977ZM38.7168 2.00977C38.7168 2.00977 38.7192 2.00977 38.7241 2.00977C38.729 2.00977 38.7314 2.00977 38.7314 2.00977L38.7461 2.02441L38.7168 2.00977ZM38.2188 1.96582L38.7168 2.00977C38.6094 2.05859 38.5142 2.07568 38.4312 2.06104C38.3481 2.04639 38.2773 2.01465 38.2188 1.96582ZM38.4531 1.83398L38.2041 1.95117C38.1357 1.92188 38.1113 1.90234 38.1309 1.89258C38.1504 1.88281 38.2578 1.86328 38.4531 1.83398ZM38.2041 1.96582H38.1895L38.2041 1.95117V1.96582ZM35.0254 2.46387C35.2305 2.43457 35.3647 2.37598 35.4282 2.28809C35.4917 2.2002 35.6162 2.1416 35.8018 2.1123C35.8213 2.12207 35.8384 2.12939 35.853 2.13428C35.8677 2.13916 35.8799 2.14648 35.8896 2.15625L35.7285 2.22949L36.1973 2.30273L35.0254 2.46387ZM32.8574 2.49316L33.1357 2.47852L33.1504 2.50781L32.8721 2.53711L32.8574 2.49316ZM31.7588 2.75684C31.8857 2.75684 32.0127 2.75195 32.1396 2.74219C32.2666 2.73242 32.3936 2.72754 32.5205 2.72754C32.4033 2.77637 32.2812 2.81055 32.1543 2.83008C32.0273 2.84961 31.8955 2.8252 31.7588 2.75684ZM31.7588 2.75684C31.8076 2.69824 31.8589 2.65918 31.9126 2.63965C31.9663 2.62012 32.1201 2.5957 32.374 2.56641C32.2471 2.60547 32.1348 2.63965 32.0371 2.66895C31.9395 2.69824 31.8467 2.72754 31.7588 2.75684ZM29.2393 3.28418C29.2197 3.28418 29.2002 3.27686 29.1807 3.26221C29.1611 3.24756 29.1562 3.24023 29.166 3.24023C29.1758 3.23047 29.1953 3.2207 29.2246 3.21094C29.2539 3.20117 29.2881 3.19141 29.3271 3.18164C29.3369 3.20117 29.3491 3.21582 29.3638 3.22559C29.3784 3.23535 29.3857 3.24512 29.3857 3.25488C29.3662 3.26465 29.3442 3.27197 29.3198 3.27686C29.2954 3.28174 29.2734 3.28418 29.2539 3.28418C29.2539 3.28418 29.2515 3.28418 29.2466 3.28418C29.2417 3.28418 29.2393 3.28418 29.2393 3.28418ZM24.0537 4.29492C24.0342 4.16797 24.0732 4.0874 24.1709 4.05322C24.2686 4.01904 24.5615 3.98242 25.0498 3.94336C24.8643 3.99219 24.7422 4.07031 24.6836 4.17773C24.625 4.28516 24.415 4.32422 24.0537 4.29492ZM19.0879 4.96875L19.3223 4.9248L19.3516 4.9541L19.1318 4.99805L19.0879 4.96875ZM18.3701 5.12988L18.6777 5.05664L18.7363 5.10059L18.458 5.17383L18.3701 5.12988ZM1.7002 11.707C1.70996 11.6973 1.73193 11.6875 1.76611 11.6777C1.80029 11.668 1.82227 11.6631 1.83203 11.6631C1.86133 11.6729 1.88574 11.6851 1.90527 11.6997C1.9248 11.7144 1.94434 11.7266 1.96387 11.7363L1.71484 11.8096C1.70508 11.7803 1.69775 11.7583 1.69287 11.7437C1.68799 11.729 1.69043 11.7168 1.7002 11.707Z" fill="#F0E800"/>
</svg>
