<svg width="10" height="13" viewBox="0 0 10 13" fill="none" xmlns="http://www.w3.org/2000/svg">
<path fill-rule="evenodd" clip-rule="evenodd" d="M4.9885 12.466L5.46054 11.9342C5.99617 11.3212 6.47818 10.738 6.90658 10.1844L7.26043 9.71759C8.73814 7.72719 9.477 6.14799 9.477 4.97998C9.477 2.48737 7.46765 0.466797 4.9885 0.466797C2.50935 0.466797 0.5 2.48737 0.5 4.97998C0.5 6.14799 1.23886 7.72744 2.71657 9.71834L3.07041 10.1851C3.68201 10.9686 4.32179 11.7289 4.9885 12.466Z" stroke="#222222" stroke-width="0.5" stroke-linecap="round" stroke-linejoin="round"/>
<path d="M4.98935 6.82538C6.02224 6.82538 6.85956 5.98806 6.85956 4.95517C6.85956 3.92228 6.02224 3.08496 4.98935 3.08496C3.95646 3.08496 3.11914 3.92228 3.11914 4.95517C3.11914 5.98806 3.95646 6.82538 4.98935 6.82538Z" fill="#222222"/>
</svg>
