<svg width="42" height="37" viewBox="0 0 42 37" fill="none" xmlns="http://www.w3.org/2000/svg">
<path d="M41.0176 7.77441L38.7412 27.9004C38.6689 28.4544 38.5063 28.9603 38.2534 29.418C38.0005 29.8757 37.6813 30.2611 37.2959 30.5742C37.0309 30.7669 36.7419 30.9295 36.4287 31.062C36.1156 31.1945 35.7904 31.2969 35.4531 31.3691H35.417V32.1641C35.417 33.2721 34.9954 34.1995 34.1523 34.9463C33.3092 35.693 32.3337 36.0664 31.2256 36.0664H3.98145C3.95736 36.0664 3.93327 36.0664 3.90918 36.0664C3.88509 36.0664 3.861 36.0664 3.83691 36.0664C2.80111 36.0182 1.9279 35.6328 1.21729 34.9102C0.506673 34.1875 0.151367 33.3083 0.151367 32.2725C0.151367 32.2484 0.151367 32.2303 0.151367 32.2183C0.151367 32.2062 0.151367 32.1882 0.151367 32.1641V11.8936C0.151367 10.7855 0.518717 9.82194 1.25342 9.00293C1.98812 8.18392 2.89746 7.77441 3.98145 7.77441H5.49902L6.00488 3.69141C6.07715 3.16146 6.23975 2.67366 6.49268 2.22803C6.74561 1.78239 7.06478 1.41504 7.4502 1.12598C7.76335 0.836914 8.1307 0.614094 8.55225 0.45752C8.9738 0.300945 9.41341 0.222656 9.87109 0.222656C9.96745 0.222656 10.0578 0.22868 10.1421 0.240723C10.2264 0.252766 10.3167 0.258789 10.4131 0.258789H10.377L37.5127 3.33008C38.5003 3.45052 39.3374 3.89014 40.0239 4.64893C40.7104 5.40771 41.0537 6.30501 41.0537 7.34082C41.0537 7.41309 41.0477 7.48535 41.0356 7.55762C41.0236 7.62988 41.0176 7.70215 41.0176 7.77441ZM3.98145 34.0791H31.2256C31.7796 34.0791 32.2855 33.8984 32.7432 33.5371C33.2008 33.1758 33.4297 32.7181 33.4297 32.1641V22.5527L23.6377 28.2256C23.3005 28.4183 22.9391 28.5688 22.5537 28.6772C22.1683 28.7856 21.7588 28.8398 21.3252 28.8398C21.3011 28.8398 21.2891 28.8398 21.2891 28.8398C21.2891 28.8398 21.277 28.8398 21.2529 28.8398C20.6989 28.8398 20.1689 28.7435 19.6631 28.5508C19.1572 28.3581 18.7116 28.0931 18.3262 27.7559L12.9062 22.9863C12.6895 22.7936 12.4425 22.6431 12.1655 22.5347C11.8885 22.4263 11.5934 22.3721 11.2803 22.3721C11.0153 22.3721 10.7563 22.4142 10.5034 22.4985C10.2505 22.5828 10.0277 22.6973 9.83496 22.8418L2.13867 28.5146V32.1641C2.13867 32.1882 2.13867 32.2062 2.13867 32.2183C2.13867 32.2303 2.13867 32.2484 2.13867 32.2725C2.13867 32.7783 2.31331 33.2059 2.6626 33.5552C3.01188 33.9045 3.42741 34.0791 3.90918 34.0791C3.93327 34.0791 3.95133 34.0791 3.96338 34.0791C3.97542 34.0791 3.98145 34.0791 3.98145 34.0791ZM3.98145 9.76172C3.42741 9.76172 2.98177 9.97852 2.64453 10.4121C2.30729 10.8457 2.13867 11.3395 2.13867 11.8936V26.0215L8.67871 21.252C9.06413 20.987 9.47966 20.7762 9.92529 20.6196C10.3709 20.4631 10.8346 20.3848 11.3164 20.3848C11.8704 20.3848 12.3944 20.4811 12.8882 20.6738C13.382 20.8665 13.8216 21.1315 14.207 21.4688L19.6631 26.2744C19.8799 26.4671 20.1328 26.6177 20.4219 26.7261C20.7109 26.8345 21.012 26.8887 21.3252 26.8887C21.542 26.8887 21.7648 26.8525 21.9937 26.7803C22.2225 26.708 22.4333 26.6237 22.626 26.5273H22.5898L33.4297 20.2041V11.8936C33.3815 11.3154 33.1527 10.8216 32.7432 10.4121C32.3337 10.0026 31.8398 9.78581 31.2617 9.76172H31.2256H3.98145ZM37.2598 5.31738L10.1963 2.20996C10.1481 2.20996 10.112 2.20996 10.0879 2.20996C10.0638 2.20996 10.0277 2.20996 9.97949 2.20996C9.73861 2.20996 9.50977 2.24609 9.29297 2.31836C9.07617 2.39062 8.87142 2.48698 8.67871 2.60742C8.51009 2.77604 8.35954 2.96875 8.22705 3.18555C8.09456 3.40234 8.00423 3.63118 7.95605 3.87207V3.9082L7.48633 7.77441H31.2256C32.3577 7.7985 33.3273 8.20801 34.1343 9.00293C34.9412 9.79785 35.3688 10.7493 35.417 11.8574V11.8936V29.418C35.417 29.3457 35.5013 29.2855 35.6699 29.2373C35.8385 29.1891 35.971 29.1169 36.0674 29.0205C36.2601 28.8519 36.4167 28.6532 36.5371 28.4243C36.6576 28.1955 36.7178 27.9486 36.7178 27.6836C36.7178 27.6836 36.7178 27.6776 36.7178 27.6655C36.7178 27.6535 36.7178 27.6475 36.7178 27.6475L39.0303 7.52148V7.48535C39.0303 7.46126 39.0363 7.43115 39.0483 7.39502C39.0604 7.35889 39.0664 7.32878 39.0664 7.30469C39.0664 6.79883 38.8918 6.35319 38.5425 5.96777C38.1932 5.58236 37.7656 5.36556 37.2598 5.31738ZM20.8555 21.2158C20.8555 21.2158 20.8434 21.2158 20.8193 21.2158C20.7952 21.2158 20.7832 21.2158 20.7832 21.2158C19.627 21.2158 18.6393 20.8063 17.8203 19.9873C17.0013 19.1683 16.5918 18.1927 16.5918 17.0605C16.5918 15.9043 17.0013 14.9167 17.8203 14.0977C18.6393 13.2786 19.627 12.8691 20.7832 12.8691C20.7832 12.8691 20.7952 12.8691 20.8193 12.8691C20.8434 12.8691 20.8555 12.8691 20.8555 12.8691C20.8796 12.8691 20.8976 12.8691 20.9097 12.8691C20.9217 12.8691 20.9398 12.8691 20.9639 12.8691C22.1201 12.8691 23.1017 13.2786 23.9087 14.0977C24.7157 14.9167 25.1191 15.9043 25.1191 17.0605C25.1191 18.1927 24.7157 19.1683 23.9087 19.9873C23.1017 20.8063 22.1201 21.2158 20.9639 21.2158C20.9398 21.2158 20.9217 21.2158 20.9097 21.2158C20.8976 21.2158 20.8796 21.2158 20.8555 21.2158ZM20.8555 14.8564C20.2533 14.8564 19.7414 15.0672 19.3198 15.4888C18.8983 15.9103 18.6875 16.4342 18.6875 17.0605C18.6875 17.6628 18.8983 18.1746 19.3198 18.5962C19.7414 19.0177 20.2533 19.2285 20.8555 19.2285C21.4577 19.2285 21.9756 19.0177 22.4092 18.5962C22.8428 18.1746 23.0596 17.6628 23.0596 17.0605C23.0596 16.4342 22.8428 15.9103 22.4092 15.4888C21.9756 15.0672 21.4577 14.8564 20.8555 14.8564Z" fill="#39C0FA"/>
</svg>
