<svg width="32" height="32" viewBox="0 0 32 32" fill="none" xmlns="http://www.w3.org/2000/svg">
<path d="M16 21.333C18.228 21.333 20 19.5583 20 17.333C20 15.1077 18.228 13.333 16 13.333C13.772 13.333 12 15.1077 12 17.333C12 19.5583 13.772 21.333 16 21.333Z" fill="#5F5F5F"/>
<path d="M27.756 14.915C27.4432 13.379 26.8291 11.9203 25.9493 10.623C25.0875 9.34491 23.9874 8.24486 22.7093 7.38299C21.4104 6.50629 19.9522 5.89251 18.4173 5.57633C17.6108 5.4125 16.7896 5.33208 15.9667 5.33633V2.66699L10.6667 6.66699L15.9667 10.667V8.00299C16.612 8.00033 17.2573 8.06166 17.88 8.18966C19.073 8.4355 20.2063 8.91246 21.216 9.59366C22.2113 10.2645 23.0678 11.1211 23.7387 12.1163C24.7802 13.6567 25.3357 15.4742 25.3333 17.3337C25.3343 18.5816 25.0849 19.8171 24.6 20.967C24.3655 21.5215 24.078 22.0519 23.7413 22.551C23.4054 23.0485 23.0223 23.5124 22.5973 23.9363C21.3066 25.2244 19.6681 26.1081 17.8827 26.479C16.6411 26.7308 15.3616 26.7308 14.12 26.479C12.9265 26.2329 11.7927 25.7555 10.7827 25.0737C9.7886 24.4033 8.93301 23.5477 8.26267 22.5537C7.22237 21.0116 6.6666 19.1938 6.66667 17.3337H4C3.9998 19.7255 4.71437 22.0628 6.052 24.0457C6.9159 25.3204 8.01456 26.4191 9.28933 27.283C11.2702 28.6236 13.6081 29.3381 16 29.3337C16.8124 29.3344 17.6228 29.2527 18.4187 29.0897C19.9531 28.7733 21.4108 28.1595 22.7093 27.283C23.3465 26.8525 23.9408 26.3618 24.484 25.8177C25.0287 25.2741 25.5199 24.6793 25.9507 24.0417C27.2903 22.0614 28.0043 19.7245 28 17.3337C28.0007 16.5213 27.919 15.7109 27.756 14.915Z" fill="#5F5F5F"/>
</svg>
