<svg width="29" height="24" viewBox="0 0 29 24" fill="none" xmlns="http://www.w3.org/2000/svg">
<path d="M9.0432 23.8919C5.71456 23.8919 2.61167 22.9145 0 21.2281C2.21739 21.373 6.1306 21.026 8.56463 18.6822C4.90306 18.5126 3.25177 15.6775 3.03639 14.466C3.3475 14.5871 4.83126 14.7326 5.66888 14.3933C1.4569 13.3271 0.810746 9.5955 0.954337 8.45669C1.74408 9.014 3.08425 9.20783 3.61075 9.15932C-0.314048 6.32429 1.09793 2.05965 1.79194 1.13886C4.60852 5.07824 8.82969 7.29077 14.0519 7.41376C13.9534 6.97789 13.9014 6.52394 13.9014 6.05774C13.9014 2.71217 16.58 0 19.8843 0C21.6107 0 23.1664 0.740389 24.2584 1.92469C25.4121 1.65177 27.1483 1.01288 27.9971 0.460387C27.5693 2.01119 26.2373 3.30486 25.4316 3.78435C25.425 3.76797 25.4383 3.80066 25.4316 3.78435C26.1393 3.67628 28.0543 3.30474 28.8108 2.78658C28.4367 3.6578 27.0245 5.10635 25.8656 5.91729C26.0813 15.5174 18.8057 23.8919 9.0432 23.8919Z" fill="#47ACDF"/>
</svg>
