<svg width="42" height="39" viewBox="0 0 42 39" fill="none" xmlns="http://www.w3.org/2000/svg">
<mask id="path-1-inside-1_1132_7273" fill="white">
<path d="M30.614 15.269C30.3147 15.269 30.0447 15.1759 29.8039 14.9897C29.5631 14.8034 29.3972 14.5655 29.3061 14.2759V14.2552H26.866C26.9962 14.3517 27.1295 14.4586 27.2662 14.5759C27.4028 14.6931 27.5297 14.8138 27.6469 14.9379C28.1154 15.4069 28.4895 15.9621 28.7693 16.6034C29.0491 17.2448 29.202 17.931 29.228 18.6621V18.6828C29.5534 18.7793 29.8202 18.9724 30.0284 19.2621C30.2366 19.5517 30.3407 19.8759 30.3407 20.2345C30.3407 20.6897 30.1911 21.0759 29.8917 21.3931C29.5924 21.7103 29.2345 21.869 28.8181 21.869C28.3886 21.869 28.0243 21.7103 27.7249 21.3931C27.4256 21.0759 27.276 20.6897 27.276 20.2345C27.276 19.8759 27.3801 19.5517 27.5883 19.2621C27.7965 18.9724 28.0568 18.7793 28.3691 18.6828C28.3431 18.0759 28.2064 17.5034 27.9592 16.9655C27.7249 16.4276 27.4093 15.9586 27.0124 15.5586C26.6155 15.1586 26.1568 14.8414 25.6362 14.6069C25.1156 14.3724 24.5691 14.2552 23.9965 14.2552H22.9618C22.9228 14.8069 22.7146 15.269 22.3372 15.6414C21.9598 16.0138 21.5108 16.2 20.9902 16.2C20.4697 16.2 20.024 16.0138 19.6531 15.6414C19.2822 15.269 19.0707 14.8138 19.0186 14.2759V14.2552H18.0035C17.4179 14.2552 16.8648 14.3724 16.3443 14.6069C15.8367 14.8414 15.3845 15.1586 14.9876 15.5586C14.5907 15.9586 14.2686 16.4276 14.0213 16.9655C13.774 17.5034 13.6374 18.0759 13.6114 18.6828C13.9367 18.7793 14.2002 18.9724 14.402 19.2621C14.6037 19.5517 14.7045 19.8759 14.7045 20.2345C14.7045 20.6897 14.5549 21.0759 14.2555 21.3931C13.9562 21.7103 13.5983 21.869 13.1819 21.869C12.7524 21.869 12.3881 21.7103 12.0887 21.3931C11.7894 21.0759 11.6398 20.6897 11.6398 20.2345C11.6398 19.8759 11.7439 19.5517 11.9521 19.2621C12.1603 18.9724 12.4206 18.7793 12.7329 18.6828H12.7524C12.7785 17.9379 12.9346 17.2483 13.2209 16.6138C13.5072 15.9793 13.8781 15.4207 14.3336 14.9379C14.4508 14.8138 14.5744 14.6966 14.7045 14.5862C14.8347 14.4759 14.9713 14.3724 15.1145 14.2759L15.134 14.2552H12.6744C12.5833 14.5586 12.4206 14.8034 12.1863 14.9897C11.9521 15.1759 11.6788 15.269 11.3665 15.269C10.9891 15.269 10.667 15.1276 10.4002 14.8448C10.1334 14.5621 10 14.2138 10 13.8C10 13.4 10.1334 13.0586 10.4002 12.7759C10.667 12.4931 10.9891 12.3517 11.3665 12.3517C11.6788 12.3517 11.9521 12.4448 12.1863 12.631C12.4206 12.8172 12.5833 13.0552 12.6744 13.3448H19.1553C19.2984 12.9448 19.5359 12.6207 19.8678 12.3724C20.1996 12.1241 20.5738 12 20.9902 12C21.4067 12 21.7841 12.1241 22.1224 12.3724C22.4608 12.6207 22.7016 12.9448 22.8447 13.3448H29.3061C29.3972 13.0552 29.5631 12.8172 29.8039 12.631C30.0447 12.4448 30.3147 12.3517 30.614 12.3517C30.9914 12.3517 31.3168 12.4931 31.5901 12.7759C31.8634 13.0586 32 13.4 32 13.8C32 14.2138 31.8634 14.5621 31.5901 14.8448C31.3168 15.1276 30.9914 15.269 30.614 15.269ZM28.1349 20.2345C28.1349 20.4276 28.1999 20.5966 28.3301 20.7414C28.4602 20.8862 28.6229 20.9586 28.8181 20.9586C29.0003 20.9448 29.1532 20.869 29.2768 20.731C29.4005 20.5931 29.4623 20.4276 29.4623 20.2345C29.4623 20.0414 29.4005 19.8759 29.2768 19.7379C29.1532 19.6 29.0003 19.531 28.8181 19.531C28.6229 19.531 28.4602 19.6 28.3301 19.7379C28.1999 19.8759 28.1349 20.0414 28.1349 20.2345ZM12.4987 20.2345C12.4987 20.4276 12.567 20.5966 12.7036 20.7414C12.8403 20.8862 12.9997 20.9586 13.1819 20.9586C13.3641 20.9448 13.517 20.869 13.6406 20.731C13.7643 20.5931 13.8261 20.4276 13.8261 20.2345C13.8261 20.0414 13.7643 19.8759 13.6406 19.7379C13.517 19.6 13.3641 19.531 13.1819 19.531C12.9997 19.531 12.8403 19.6 12.7036 19.7379C12.567 19.8759 12.4987 20.0414 12.4987 20.2345ZM11.3665 13.2621C11.2363 13.2621 11.1224 13.3172 11.0248 13.4276C10.9272 13.5379 10.8784 13.6621 10.8784 13.8C10.8784 13.9517 10.9272 14.0828 11.0248 14.1931C11.1224 14.3034 11.2363 14.3586 11.3665 14.3586C11.5096 14.3448 11.63 14.2862 11.7276 14.1828C11.8252 14.0793 11.874 13.9517 11.874 13.8C11.874 13.6621 11.8252 13.5379 11.7276 13.4276C11.63 13.3172 11.5096 13.2621 11.3665 13.2621ZM20.9902 12.9103C20.6909 12.9103 20.4306 13.0276 20.2094 13.2621C19.9882 13.4966 19.8776 13.7724 19.8776 14.0897C19.8776 14.4207 19.9882 14.7034 20.2094 14.9379C20.4306 15.1724 20.6909 15.2897 20.9902 15.2897C21.3026 15.2897 21.5661 15.1724 21.7808 14.9379C21.9956 14.7034 22.1029 14.4207 22.1029 14.0897C22.1029 13.7724 21.9956 13.4966 21.7808 13.2621C21.5661 13.0276 21.3026 12.9103 20.9902 12.9103ZM30.614 13.2621C30.4839 13.2621 30.37 13.3172 30.2724 13.4276C30.1748 13.5379 30.126 13.6621 30.126 13.8C30.126 13.9517 30.1748 14.0793 30.2724 14.1828C30.37 14.2862 30.4839 14.3448 30.614 14.3586C30.7572 14.3448 30.8743 14.2862 30.9654 14.1828C31.0565 14.0793 31.102 13.9517 31.102 13.8C31.102 13.6621 31.0565 13.5379 30.9654 13.4276C30.8743 13.3172 30.7572 13.2621 30.614 13.2621ZM18.9796 24.9931C18.9796 24.4138 19.1748 23.9138 19.5652 23.4931C19.9556 23.0724 20.4306 22.8621 20.9902 22.8621C21.5498 22.8621 22.0248 23.0724 22.4153 23.4931C22.8057 23.9138 23.0009 24.4138 23.0009 24.9931C23.0009 25.5862 22.8057 26.0897 22.4153 26.5034C22.0248 26.9172 21.5498 27.1241 20.9902 27.1241C20.4306 27.1241 19.9556 26.9172 19.5652 26.5034C19.1748 26.0897 18.9796 25.5862 18.9796 24.9931ZM22.142 24.9931C22.142 24.6621 22.0314 24.3759 21.8101 24.1345C21.5889 23.8931 21.3156 23.7724 20.9902 23.7724C20.6779 23.7724 20.4079 23.8931 20.1801 24.1345C19.9524 24.3759 19.8385 24.6621 19.8385 24.9931C19.8385 25.3379 19.9524 25.6276 20.1801 25.8621C20.4079 26.0966 20.6779 26.2138 20.9902 26.2138C21.3156 26.2138 21.5889 26.0966 21.8101 25.8621C22.0314 25.6276 22.142 25.3379 22.142 24.9931ZM23.606 22.2207C23.4499 22.2207 23.3295 22.1517 23.2449 22.0138C23.1603 21.8759 23.144 21.731 23.1961 21.5793C23.2872 21.3586 23.4466 21.2724 23.6744 21.3207C23.9021 21.369 24.0225 21.5172 24.0355 21.7655C24.0225 21.8897 23.9769 21.9966 23.8988 22.0862C23.8208 22.1759 23.7232 22.2207 23.606 22.2207ZM20.1508 17.3793C20.1899 17.2966 20.2419 17.2345 20.307 17.1931C20.3721 17.1517 20.4437 17.131 20.5217 17.131H21.4587C21.5368 17.131 21.6117 17.1517 21.6832 17.1931C21.7548 17.2345 21.8101 17.2966 21.8492 17.3793L23.0399 19.7172C23.0529 19.7448 23.0627 19.7759 23.0692 19.8103C23.0757 19.8448 23.079 19.8828 23.079 19.9241C23.079 20.0483 23.0399 20.1552 22.9618 20.2448C22.8838 20.3345 22.7797 20.3793 22.6495 20.3793C22.5714 20.3793 22.5031 20.3586 22.4445 20.3172C22.386 20.2759 22.3372 20.2207 22.2981 20.1517L21.4197 18.4759V21.269C21.4197 21.2828 21.4197 21.2897 21.4197 21.2897C21.4197 21.4138 21.3774 21.5207 21.2928 21.6103C21.2082 21.7 21.1074 21.7448 20.9902 21.7448C20.8731 21.7448 20.7723 21.7 20.6877 21.6103C20.6031 21.5207 20.5608 21.4138 20.5608 21.2897C20.5608 21.2897 20.5608 21.2828 20.5608 21.269V18.4759L17.457 24.5379C17.4049 24.6483 17.3626 24.769 17.3301 24.9C17.2975 25.031 17.2813 25.1655 17.2813 25.3034C17.2813 25.4414 17.2943 25.5724 17.3203 25.6966C17.3463 25.8207 17.3919 25.9448 17.457 26.069L17.4374 26.0483L18.6673 28.5517H23.3132L24.543 26.0483C24.5951 25.9379 24.6374 25.8207 24.6699 25.6966C24.7025 25.5724 24.7187 25.4414 24.7187 25.3034C24.7187 25.1655 24.7025 25.031 24.6699 24.9C24.6374 24.769 24.5886 24.6414 24.5235 24.5172V24.5379L24.016 23.5448C24.003 23.5034 23.9899 23.4655 23.9769 23.431C23.9639 23.3966 23.9574 23.3586 23.9574 23.3172C23.9574 23.1931 23.9997 23.0862 24.0843 22.9966C24.1689 22.9069 24.2697 22.8621 24.3869 22.8621C24.478 22.8621 24.556 22.8828 24.6211 22.9241C24.6862 22.9655 24.7382 23.0207 24.7773 23.0897V23.1103L25.2848 24.1034C25.3759 24.2828 25.4475 24.4724 25.4996 24.6724C25.5516 24.8724 25.5776 25.0828 25.5776 25.3034C25.5776 25.5241 25.5549 25.731 25.5093 25.9241C25.4638 26.1172 25.3954 26.3034 25.3043 26.4828L24.2893 28.5517H24.4064C24.5235 28.5655 24.6211 28.6138 24.6992 28.6966C24.7773 28.7793 24.8163 28.8828 24.8163 29.0069C24.8163 29.131 24.7773 29.2379 24.6992 29.3276C24.6211 29.4172 24.5235 29.4621 24.4064 29.4621H24.1331L24.8358 32.4414C24.8358 32.4552 24.8358 32.4724 24.8358 32.4931C24.8358 32.5138 24.8358 32.531 24.8358 32.5448C24.8358 32.669 24.7968 32.7759 24.7187 32.8655C24.6406 32.9552 24.5365 33 24.4064 33H17.5741C17.457 33 17.3561 32.9552 17.2715 32.8655C17.1869 32.7759 17.1446 32.669 17.1446 32.5448C17.1446 32.531 17.1446 32.5138 17.1446 32.4931C17.1446 32.4724 17.1511 32.4552 17.1642 32.4414L17.8474 29.4621H17.5741C17.457 29.4621 17.3561 29.4172 17.2715 29.3276C17.1869 29.2379 17.1446 29.131 17.1446 29.0069C17.1446 28.8828 17.1869 28.7759 17.2715 28.6862C17.3561 28.5966 17.457 28.5517 17.5741 28.5517H17.6912L16.6761 26.4828C16.598 26.3034 16.5362 26.1172 16.4907 25.9241C16.4451 25.731 16.4224 25.5241 16.4224 25.3034C16.4224 25.0828 16.4451 24.869 16.4907 24.6621C16.5362 24.4552 16.6111 24.2621 16.7152 24.0828L16.6957 24.1034L20.1508 17.3793ZM23.8598 32.0897L23.2547 29.4621H18.7453L18.1207 32.0897H23.8598Z"/>
</mask>
<path d="M30.614 15.269C30.3147 15.269 30.0447 15.1759 29.8039 14.9897C29.5631 14.8034 29.3972 14.5655 29.3061 14.2759V14.2552H26.866C26.9962 14.3517 27.1295 14.4586 27.2662 14.5759C27.4028 14.6931 27.5297 14.8138 27.6469 14.9379C28.1154 15.4069 28.4895 15.9621 28.7693 16.6034C29.0491 17.2448 29.202 17.931 29.228 18.6621V18.6828C29.5534 18.7793 29.8202 18.9724 30.0284 19.2621C30.2366 19.5517 30.3407 19.8759 30.3407 20.2345C30.3407 20.6897 30.1911 21.0759 29.8917 21.3931C29.5924 21.7103 29.2345 21.869 28.8181 21.869C28.3886 21.869 28.0243 21.7103 27.7249 21.3931C27.4256 21.0759 27.276 20.6897 27.276 20.2345C27.276 19.8759 27.3801 19.5517 27.5883 19.2621C27.7965 18.9724 28.0568 18.7793 28.3691 18.6828C28.3431 18.0759 28.2064 17.5034 27.9592 16.9655C27.7249 16.4276 27.4093 15.9586 27.0124 15.5586C26.6155 15.1586 26.1568 14.8414 25.6362 14.6069C25.1156 14.3724 24.5691 14.2552 23.9965 14.2552H22.9618C22.9228 14.8069 22.7146 15.269 22.3372 15.6414C21.9598 16.0138 21.5108 16.2 20.9902 16.2C20.4697 16.2 20.024 16.0138 19.6531 15.6414C19.2822 15.269 19.0707 14.8138 19.0186 14.2759V14.2552H18.0035C17.4179 14.2552 16.8648 14.3724 16.3443 14.6069C15.8367 14.8414 15.3845 15.1586 14.9876 15.5586C14.5907 15.9586 14.2686 16.4276 14.0213 16.9655C13.774 17.5034 13.6374 18.0759 13.6114 18.6828C13.9367 18.7793 14.2002 18.9724 14.402 19.2621C14.6037 19.5517 14.7045 19.8759 14.7045 20.2345C14.7045 20.6897 14.5549 21.0759 14.2555 21.3931C13.9562 21.7103 13.5983 21.869 13.1819 21.869C12.7524 21.869 12.3881 21.7103 12.0887 21.3931C11.7894 21.0759 11.6398 20.6897 11.6398 20.2345C11.6398 19.8759 11.7439 19.5517 11.9521 19.2621C12.1603 18.9724 12.4206 18.7793 12.7329 18.6828H12.7524C12.7785 17.9379 12.9346 17.2483 13.2209 16.6138C13.5072 15.9793 13.8781 15.4207 14.3336 14.9379C14.4508 14.8138 14.5744 14.6966 14.7045 14.5862C14.8347 14.4759 14.9713 14.3724 15.1145 14.2759L15.134 14.2552H12.6744C12.5833 14.5586 12.4206 14.8034 12.1863 14.9897C11.9521 15.1759 11.6788 15.269 11.3665 15.269C10.9891 15.269 10.667 15.1276 10.4002 14.8448C10.1334 14.5621 10 14.2138 10 13.8C10 13.4 10.1334 13.0586 10.4002 12.7759C10.667 12.4931 10.9891 12.3517 11.3665 12.3517C11.6788 12.3517 11.9521 12.4448 12.1863 12.631C12.4206 12.8172 12.5833 13.0552 12.6744 13.3448H19.1553C19.2984 12.9448 19.5359 12.6207 19.8678 12.3724C20.1996 12.1241 20.5738 12 20.9902 12C21.4067 12 21.7841 12.1241 22.1224 12.3724C22.4608 12.6207 22.7016 12.9448 22.8447 13.3448H29.3061C29.3972 13.0552 29.5631 12.8172 29.8039 12.631C30.0447 12.4448 30.3147 12.3517 30.614 12.3517C30.9914 12.3517 31.3168 12.4931 31.5901 12.7759C31.8634 13.0586 32 13.4 32 13.8C32 14.2138 31.8634 14.5621 31.5901 14.8448C31.3168 15.1276 30.9914 15.269 30.614 15.269ZM28.1349 20.2345C28.1349 20.4276 28.1999 20.5966 28.3301 20.7414C28.4602 20.8862 28.6229 20.9586 28.8181 20.9586C29.0003 20.9448 29.1532 20.869 29.2768 20.731C29.4005 20.5931 29.4623 20.4276 29.4623 20.2345C29.4623 20.0414 29.4005 19.8759 29.2768 19.7379C29.1532 19.6 29.0003 19.531 28.8181 19.531C28.6229 19.531 28.4602 19.6 28.3301 19.7379C28.1999 19.8759 28.1349 20.0414 28.1349 20.2345ZM12.4987 20.2345C12.4987 20.4276 12.567 20.5966 12.7036 20.7414C12.8403 20.8862 12.9997 20.9586 13.1819 20.9586C13.3641 20.9448 13.517 20.869 13.6406 20.731C13.7643 20.5931 13.8261 20.4276 13.8261 20.2345C13.8261 20.0414 13.7643 19.8759 13.6406 19.7379C13.517 19.6 13.3641 19.531 13.1819 19.531C12.9997 19.531 12.8403 19.6 12.7036 19.7379C12.567 19.8759 12.4987 20.0414 12.4987 20.2345ZM11.3665 13.2621C11.2363 13.2621 11.1224 13.3172 11.0248 13.4276C10.9272 13.5379 10.8784 13.6621 10.8784 13.8C10.8784 13.9517 10.9272 14.0828 11.0248 14.1931C11.1224 14.3034 11.2363 14.3586 11.3665 14.3586C11.5096 14.3448 11.63 14.2862 11.7276 14.1828C11.8252 14.0793 11.874 13.9517 11.874 13.8C11.874 13.6621 11.8252 13.5379 11.7276 13.4276C11.63 13.3172 11.5096 13.2621 11.3665 13.2621ZM20.9902 12.9103C20.6909 12.9103 20.4306 13.0276 20.2094 13.2621C19.9882 13.4966 19.8776 13.7724 19.8776 14.0897C19.8776 14.4207 19.9882 14.7034 20.2094 14.9379C20.4306 15.1724 20.6909 15.2897 20.9902 15.2897C21.3026 15.2897 21.5661 15.1724 21.7808 14.9379C21.9956 14.7034 22.1029 14.4207 22.1029 14.0897C22.1029 13.7724 21.9956 13.4966 21.7808 13.2621C21.5661 13.0276 21.3026 12.9103 20.9902 12.9103ZM30.614 13.2621C30.4839 13.2621 30.37 13.3172 30.2724 13.4276C30.1748 13.5379 30.126 13.6621 30.126 13.8C30.126 13.9517 30.1748 14.0793 30.2724 14.1828C30.37 14.2862 30.4839 14.3448 30.614 14.3586C30.7572 14.3448 30.8743 14.2862 30.9654 14.1828C31.0565 14.0793 31.102 13.9517 31.102 13.8C31.102 13.6621 31.0565 13.5379 30.9654 13.4276C30.8743 13.3172 30.7572 13.2621 30.614 13.2621ZM18.9796 24.9931C18.9796 24.4138 19.1748 23.9138 19.5652 23.4931C19.9556 23.0724 20.4306 22.8621 20.9902 22.8621C21.5498 22.8621 22.0248 23.0724 22.4153 23.4931C22.8057 23.9138 23.0009 24.4138 23.0009 24.9931C23.0009 25.5862 22.8057 26.0897 22.4153 26.5034C22.0248 26.9172 21.5498 27.1241 20.9902 27.1241C20.4306 27.1241 19.9556 26.9172 19.5652 26.5034C19.1748 26.0897 18.9796 25.5862 18.9796 24.9931ZM22.142 24.9931C22.142 24.6621 22.0314 24.3759 21.8101 24.1345C21.5889 23.8931 21.3156 23.7724 20.9902 23.7724C20.6779 23.7724 20.4079 23.8931 20.1801 24.1345C19.9524 24.3759 19.8385 24.6621 19.8385 24.9931C19.8385 25.3379 19.9524 25.6276 20.1801 25.8621C20.4079 26.0966 20.6779 26.2138 20.9902 26.2138C21.3156 26.2138 21.5889 26.0966 21.8101 25.8621C22.0314 25.6276 22.142 25.3379 22.142 24.9931ZM23.606 22.2207C23.4499 22.2207 23.3295 22.1517 23.2449 22.0138C23.1603 21.8759 23.144 21.731 23.1961 21.5793C23.2872 21.3586 23.4466 21.2724 23.6744 21.3207C23.9021 21.369 24.0225 21.5172 24.0355 21.7655C24.0225 21.8897 23.9769 21.9966 23.8988 22.0862C23.8208 22.1759 23.7232 22.2207 23.606 22.2207ZM20.1508 17.3793C20.1899 17.2966 20.2419 17.2345 20.307 17.1931C20.3721 17.1517 20.4437 17.131 20.5217 17.131H21.4587C21.5368 17.131 21.6117 17.1517 21.6832 17.1931C21.7548 17.2345 21.8101 17.2966 21.8492 17.3793L23.0399 19.7172C23.0529 19.7448 23.0627 19.7759 23.0692 19.8103C23.0757 19.8448 23.079 19.8828 23.079 19.9241C23.079 20.0483 23.0399 20.1552 22.9618 20.2448C22.8838 20.3345 22.7797 20.3793 22.6495 20.3793C22.5714 20.3793 22.5031 20.3586 22.4445 20.3172C22.386 20.2759 22.3372 20.2207 22.2981 20.1517L21.4197 18.4759V21.269C21.4197 21.2828 21.4197 21.2897 21.4197 21.2897C21.4197 21.4138 21.3774 21.5207 21.2928 21.6103C21.2082 21.7 21.1074 21.7448 20.9902 21.7448C20.8731 21.7448 20.7723 21.7 20.6877 21.6103C20.6031 21.5207 20.5608 21.4138 20.5608 21.2897C20.5608 21.2897 20.5608 21.2828 20.5608 21.269V18.4759L17.457 24.5379C17.4049 24.6483 17.3626 24.769 17.3301 24.9C17.2975 25.031 17.2813 25.1655 17.2813 25.3034C17.2813 25.4414 17.2943 25.5724 17.3203 25.6966C17.3463 25.8207 17.3919 25.9448 17.457 26.069L17.4374 26.0483L18.6673 28.5517H23.3132L24.543 26.0483C24.5951 25.9379 24.6374 25.8207 24.6699 25.6966C24.7025 25.5724 24.7187 25.4414 24.7187 25.3034C24.7187 25.1655 24.7025 25.031 24.6699 24.9C24.6374 24.769 24.5886 24.6414 24.5235 24.5172V24.5379L24.016 23.5448C24.003 23.5034 23.9899 23.4655 23.9769 23.431C23.9639 23.3966 23.9574 23.3586 23.9574 23.3172C23.9574 23.1931 23.9997 23.0862 24.0843 22.9966C24.1689 22.9069 24.2697 22.8621 24.3869 22.8621C24.478 22.8621 24.556 22.8828 24.6211 22.9241C24.6862 22.9655 24.7382 23.0207 24.7773 23.0897V23.1103L25.2848 24.1034C25.3759 24.2828 25.4475 24.4724 25.4996 24.6724C25.5516 24.8724 25.5776 25.0828 25.5776 25.3034C25.5776 25.5241 25.5549 25.731 25.5093 25.9241C25.4638 26.1172 25.3954 26.3034 25.3043 26.4828L24.2893 28.5517H24.4064C24.5235 28.5655 24.6211 28.6138 24.6992 28.6966C24.7773 28.7793 24.8163 28.8828 24.8163 29.0069C24.8163 29.131 24.7773 29.2379 24.6992 29.3276C24.6211 29.4172 24.5235 29.4621 24.4064 29.4621H24.1331L24.8358 32.4414C24.8358 32.4552 24.8358 32.4724 24.8358 32.4931C24.8358 32.5138 24.8358 32.531 24.8358 32.5448C24.8358 32.669 24.7968 32.7759 24.7187 32.8655C24.6406 32.9552 24.5365 33 24.4064 33H17.5741C17.457 33 17.3561 32.9552 17.2715 32.8655C17.1869 32.7759 17.1446 32.669 17.1446 32.5448C17.1446 32.531 17.1446 32.5138 17.1446 32.4931C17.1446 32.4724 17.1511 32.4552 17.1642 32.4414L17.8474 29.4621H17.5741C17.457 29.4621 17.3561 29.4172 17.2715 29.3276C17.1869 29.2379 17.1446 29.131 17.1446 29.0069C17.1446 28.8828 17.1869 28.7759 17.2715 28.6862C17.3561 28.5966 17.457 28.5517 17.5741 28.5517H17.6912L16.6761 26.4828C16.598 26.3034 16.5362 26.1172 16.4907 25.9241C16.4451 25.731 16.4224 25.5241 16.4224 25.3034C16.4224 25.0828 16.4451 24.869 16.4907 24.6621C16.5362 24.4552 16.6111 24.2621 16.7152 24.0828L16.6957 24.1034L20.1508 17.3793ZM23.8598 32.0897L23.2547 29.4621H18.7453L18.1207 32.0897H23.8598Z" fill="#8D8900" stroke="#8D8900" stroke-width="0.0878906" mask="url(#path-1-inside-1_1132_7273)"/>
<rect x="1" y="1" width="40" height="37" stroke="#8D8900" stroke-width="1.5"/>
<line x1="1" y1="7.5" x2="41" y2="7.5" stroke="#8D8900"/>
</svg>
