<svg width="203" height="45" viewBox="0 0 203 45" fill="none" xmlns="http://www.w3.org/2000/svg">
<path d="M75.5482 18.7815C75.4779 18.7815 75.4339 18.7375 75.4163 18.6495L72.3022 0.518911C72.2846 0.448535 72.311 0.413347 72.3813 0.413347H75.3371C75.4075 0.413347 75.4515 0.448535 75.4691 0.518911L77.1581 12.4476L78.8999 0.518911C78.9175 0.448535 78.9703 0.413347 79.0582 0.413347H81.4334C81.5038 0.413347 81.5478 0.448535 81.5654 0.518911L83.2808 12.4476L84.9962 0.518911C85.0138 0.448535 85.0578 0.413347 85.1282 0.413347H88.0576C88.1455 0.413347 88.1807 0.448535 88.1631 0.518911L85.0226 18.6495C85.005 18.6847 84.9786 18.7199 84.9434 18.7551C84.9082 18.7727 84.8907 18.7815 84.8907 18.7815H81.6973C81.6446 18.7815 81.6006 18.7375 81.5654 18.6495L80.2195 9.17516L78.8735 18.6495C78.8559 18.7375 78.8119 18.7815 78.7416 18.7815H75.5482Z" fill="#004F75"/>
<path d="M92.4624 18.7815C92.392 18.7815 92.3568 18.7375 92.3568 18.6495L92.3832 0.518911C92.3832 0.448535 92.4184 0.413347 92.4888 0.413347H100.96C101.031 0.413347 101.066 0.457332 101.066 0.545302V3.50109C101.066 3.57147 101.031 3.60666 100.96 3.60666H95.5501V7.72365H100.96C101.031 7.72365 101.066 7.75884 101.066 7.82922L101.092 10.8114C101.092 10.8818 101.057 10.917 100.987 10.917H95.5501V15.5354H100.987C101.057 15.5354 101.092 15.5794 101.092 15.6673V18.6759C101.092 18.7463 101.057 18.7815 100.987 18.7815H92.4624Z" fill="#004F75"/>
<path d="M106.184 18.7815C106.113 18.7815 106.078 18.7375 106.078 18.6495L106.131 0.518911C106.131 0.448535 106.166 0.413347 106.236 0.413347H111.304C112.306 0.413347 113.204 0.659663 113.995 1.15229C114.787 1.62733 115.412 2.26072 115.869 3.05245C116.327 3.84418 116.555 4.70628 116.555 5.63876C116.555 6.39531 116.379 7.09907 116.027 7.75004C115.693 8.40102 115.289 8.92884 114.814 9.3335C115.324 9.84373 115.72 10.4331 116.001 11.1017C116.283 11.7703 116.423 12.474 116.423 13.213C116.423 14.2334 116.177 15.1659 115.684 16.0104C115.192 16.8549 114.523 17.5323 113.679 18.0425C112.852 18.5352 111.928 18.7815 110.908 18.7815H106.184ZM109.298 7.69726H111.304C111.919 7.69726 112.412 7.48613 112.781 7.06388C113.168 6.62403 113.362 6.14899 113.362 5.63876C113.362 5.07576 113.16 4.59192 112.755 4.18726C112.35 3.765 111.867 3.55388 111.304 3.55388H109.298V7.69726ZM109.271 15.5618H110.908C111.541 15.5618 112.086 15.3331 112.544 14.8756C113.001 14.4006 113.23 13.8464 113.23 13.213C113.23 12.5796 113.001 12.0342 112.544 11.5767C112.086 11.1193 111.541 10.8906 110.908 10.8906H109.298L109.271 15.5618Z" fill="#004F75"/>
<path d="M125.815 19.0454C124.847 19.0454 123.968 18.8079 123.176 18.3328C122.402 17.8402 121.786 17.1892 121.329 16.3799C120.871 15.5706 120.642 14.6645 120.642 13.6616L120.669 5.42764C120.669 4.45997 120.889 3.58027 121.329 2.78854C121.786 1.97921 122.402 1.33703 123.176 0.861995C123.968 0.369363 124.847 0.123047 125.815 0.123047C126.783 0.123047 127.654 0.360566 128.428 0.835604C129.202 1.31064 129.818 1.95282 130.275 2.76214C130.733 3.55387 130.961 4.44237 130.961 5.42764V6.64162C130.961 6.712 130.926 6.74718 130.856 6.74718H127.9C127.83 6.74718 127.794 6.712 127.794 6.64162V5.42764C127.794 4.84703 127.601 4.3456 127.214 3.92335C126.844 3.50109 126.378 3.28997 125.815 3.28997C125.182 3.28997 124.698 3.50989 124.364 3.94974C124.029 4.372 123.862 4.86463 123.862 5.42764V13.6616C123.862 14.3126 124.047 14.8404 124.416 15.2451C124.803 15.6497 125.27 15.8521 125.815 15.8521C126.378 15.8521 126.844 15.6322 127.214 15.1923C127.601 14.7349 127.794 14.2246 127.794 13.6616V12.4476C127.794 12.3773 127.83 12.3421 127.9 12.3421H130.882C130.952 12.3421 130.988 12.3773 130.988 12.4476V13.6616C130.988 14.6645 130.75 15.5706 130.275 16.3799C129.818 17.1892 129.202 17.8402 128.428 18.3328C127.654 18.8079 126.783 19.0454 125.815 19.0454Z" fill="#004F75"/>
<path d="M140.439 19.0454C139.489 19.0454 138.618 18.8079 137.826 18.3328C137.052 17.8402 136.428 17.198 135.952 16.4063C135.477 15.597 135.24 14.7085 135.24 13.7408L135.266 5.37485C135.266 4.40718 135.495 3.52748 135.952 2.73575C136.428 1.94402 137.061 1.31064 137.853 0.835604C138.644 0.360566 139.506 0.123047 140.439 0.123047C141.389 0.123047 142.251 0.360566 143.025 0.835604C143.799 1.31064 144.415 1.94402 144.873 2.73575C145.348 3.52748 145.585 4.40718 145.585 5.37485L145.612 13.7408C145.612 14.7085 145.374 15.597 144.899 16.4063C144.442 17.198 143.817 17.8402 143.025 18.3328C142.251 18.8079 141.389 19.0454 140.439 19.0454ZM140.439 15.8521C140.967 15.8521 141.424 15.6409 141.811 15.2187C142.216 14.7788 142.418 14.2862 142.418 13.7408L142.392 5.37485C142.392 4.79425 142.207 4.30162 141.838 3.89696C141.468 3.4923 141.002 3.28997 140.439 3.28997C139.894 3.28997 139.427 3.4923 139.04 3.89696C138.653 4.28403 138.46 4.77666 138.46 5.37485V13.7408C138.46 14.3214 138.653 14.8228 139.04 15.2451C139.427 15.6497 139.894 15.8521 140.439 15.8521Z" fill="#004F75"/>
<path d="M150.495 18.7815C150.354 18.7815 150.284 18.7199 150.284 18.5967L150.257 0.624476C150.257 0.483723 150.328 0.413347 150.468 0.413347H152.844L157.304 10.8114L157.172 0.624476C157.172 0.483723 157.251 0.413347 157.409 0.413347H160.022C160.127 0.413347 160.18 0.483723 160.18 0.624476L160.207 18.6231C160.207 18.7287 160.163 18.7815 160.075 18.7815H157.752L153.187 9.06959L153.371 18.5703C153.371 18.7111 153.292 18.7815 153.134 18.7815H150.495Z" fill="#004F75"/>
<path d="M168.094 18.7815C168.024 18.7815 167.98 18.7375 167.962 18.6495L164.32 0.518911C164.303 0.448535 164.338 0.413347 164.426 0.413347H167.408C167.478 0.413347 167.522 0.448535 167.54 0.518911L169.704 12.606L171.815 0.518911C171.833 0.448535 171.877 0.413347 171.947 0.413347H174.903C174.991 0.413347 175.026 0.448535 175.008 0.518911L171.419 18.6495C171.402 18.7375 171.358 18.7815 171.287 18.7815H168.094Z" fill="#004F75"/>
<path d="M183.561 19.0454C182.611 19.0454 181.74 18.8079 180.949 18.3328C180.175 17.8402 179.55 17.198 179.075 16.4063C178.6 15.597 178.362 14.7085 178.362 13.7408L178.389 5.37485C178.389 4.40718 178.617 3.52748 179.075 2.73575C179.55 1.94402 180.183 1.31064 180.975 0.835604C181.767 0.360566 182.629 0.123047 183.561 0.123047C184.511 0.123047 185.374 0.360566 186.148 0.835604C186.922 1.31064 187.538 1.94402 187.995 2.73575C188.47 3.52748 188.708 4.40718 188.708 5.37485L188.734 13.7408C188.734 14.7085 188.497 15.597 188.021 16.4063C187.564 17.198 186.939 17.8402 186.148 18.3328C185.374 18.8079 184.511 19.0454 183.561 19.0454ZM183.561 15.8521C184.089 15.8521 184.547 15.6409 184.934 15.2187C185.338 14.7788 185.541 14.2862 185.541 13.7408L185.514 5.37485C185.514 4.79425 185.33 4.30162 184.96 3.89696C184.591 3.4923 184.124 3.28997 183.561 3.28997C183.016 3.28997 182.55 3.4923 182.163 3.89696C181.776 4.28403 181.582 4.77666 181.582 5.37485V13.7408C181.582 14.3214 181.776 14.8228 182.163 15.2451C182.55 15.6497 183.016 15.8521 183.561 15.8521Z" fill="#004F75"/>
<path d="M195.422 18.7815C195.369 18.7815 195.343 18.7463 195.343 18.6759L195.369 11.1809L191.833 0.518911C191.815 0.448535 191.841 0.413347 191.912 0.413347H194.841C194.929 0.413347 194.982 0.448535 194.999 0.518911L196.952 7.61809L198.932 0.518911C198.949 0.448535 198.993 0.413347 199.064 0.413347H202.019C202.09 0.413347 202.116 0.448535 202.099 0.518911L198.536 11.0753L198.562 18.6759C198.562 18.7463 198.527 18.7815 198.457 18.7815H195.422Z" fill="#004F75"/>
<path d="M104.286 43.5552C103.318 43.5552 102.439 43.3176 101.647 42.8426C100.873 42.35 100.257 41.699 99.7994 40.8897C99.342 40.0803 99.1133 39.1742 99.1133 38.1714L99.1397 29.9374C99.1397 28.9697 99.3596 28.09 99.7994 27.2983C100.257 26.489 100.873 25.8468 101.647 25.3718C102.439 24.8791 103.318 24.6328 104.286 24.6328C105.254 24.6328 106.124 24.8703 106.899 25.3454C107.673 25.8204 108.289 26.4626 108.746 27.2719C109.203 28.0636 109.432 28.9521 109.432 29.9374V31.1514C109.432 31.2218 109.397 31.257 109.327 31.257H106.371C106.3 31.257 106.265 31.2218 106.265 31.1514V29.9374C106.265 29.3568 106.072 28.8554 105.685 28.4331C105.315 28.0109 104.849 27.7997 104.286 27.7997C103.653 27.7997 103.169 28.0197 102.834 28.4595C102.5 28.8818 102.333 29.3744 102.333 29.9374V38.1714C102.333 38.8224 102.518 39.3502 102.887 39.7548C103.274 40.1595 103.741 40.3618 104.286 40.3618C104.849 40.3618 105.315 40.1419 105.685 39.7021C106.072 39.2446 106.265 38.7344 106.265 38.1714V36.9574C106.265 36.887 106.3 36.8518 106.371 36.8518H109.353C109.423 36.8518 109.459 36.887 109.459 36.9574V38.1714C109.459 39.1742 109.221 40.0803 108.746 40.8897C108.289 41.699 107.673 42.35 106.899 42.8426C106.124 43.3176 105.254 43.5552 104.286 43.5552Z" fill="#004F75"/>
<path d="M132.464 43.6142C132.376 43.6142 132.332 43.5702 132.332 43.4823L132.385 25.3516C132.385 25.2813 132.42 25.2461 132.49 25.2461L137.425 25.2197C138.393 25.2021 139.273 25.4308 140.065 25.9059C140.874 26.3809 141.516 27.0231 141.991 27.8324C142.466 28.6241 142.704 29.5038 142.704 30.4715V38.0457C142.704 39.0662 142.457 39.9986 141.965 40.8432C141.472 41.6701 140.812 42.3299 139.985 42.8225C139.159 43.3151 138.226 43.5702 137.188 43.5878L132.464 43.6142ZM135.552 40.3681H137.188C137.839 40.3681 138.384 40.1394 138.824 39.682C139.282 39.2245 139.51 38.6791 139.51 38.0457V30.4451C139.51 29.8821 139.299 29.3983 138.877 28.9936C138.472 28.5713 137.989 28.369 137.425 28.3866L135.578 28.413L135.552 40.3681Z" fill="#004F75"/>
<path d="M185.391 43.5869C185.339 43.5869 185.312 43.5517 185.312 43.4813L185.339 35.9863L181.802 25.3243C181.785 25.2539 181.811 25.2188 181.881 25.2188H184.811C184.899 25.2188 184.951 25.2539 184.969 25.3243L186.922 32.4235L188.901 25.3243C188.919 25.2539 188.963 25.2188 189.033 25.2188H191.989C192.059 25.2188 192.086 25.2539 192.068 25.3243L188.505 35.8807L188.532 43.4813C188.532 43.5517 188.497 43.5869 188.426 43.5869H185.391Z" fill="#004F75"/>
<path d="M121.77 24.6377C121.813 24.6432 121.848 24.6636 121.875 24.6904L121.876 24.6895L121.877 24.6914C121.882 24.6963 121.886 24.7018 121.89 24.707C121.895 24.7138 121.899 24.7181 121.9 24.7197C121.904 24.7249 121.907 24.7295 121.908 24.7324C121.912 24.7383 121.915 24.7443 121.917 24.749C121.922 24.7587 121.927 24.7708 121.934 24.7842C121.946 24.8116 121.964 24.8502 121.984 24.8975C122.026 24.9924 122.084 25.127 122.153 25.291C122.292 25.6191 122.479 26.0667 122.679 26.5547L123.212 27.8379C123.283 28.008 123.343 28.1494 123.387 28.252C123.409 28.3032 123.426 28.3448 123.439 28.375C123.446 28.39 123.452 28.4022 123.456 28.4111C123.46 28.4192 123.461 28.4229 123.462 28.4238L123.703 28.998C123.848 29.3455 124.055 29.8409 124.307 30.4473C124.81 31.66 125.498 33.3182 126.247 35.1289L127.433 37.9775C127.836 38.9408 128.235 39.8859 128.586 40.7188C128.936 41.5498 129.242 42.2737 129.458 42.7861C129.566 43.0429 129.653 43.2485 129.712 43.3906C129.742 43.4616 129.766 43.5173 129.781 43.5557C129.789 43.5742 129.794 43.5895 129.799 43.6006C129.801 43.606 129.804 43.6123 129.806 43.6172C129.806 43.6194 129.807 43.623 129.809 43.627C129.809 43.629 129.811 43.6335 129.812 43.6387C129.813 43.6413 129.815 43.6476 129.815 43.6514C129.816 43.6521 129.815 43.6532 129.815 43.6543L129.817 43.6699C129.818 43.6712 129.816 43.6732 129.816 43.6748L129.817 43.6836C129.817 43.6816 129.816 43.6797 129.816 43.6777C129.817 43.6924 129.819 43.7154 129.812 43.7422C129.788 43.8221 129.723 43.8534 129.695 43.8633C129.67 43.8721 129.648 43.8745 129.642 43.875C129.614 43.8772 129.563 43.8755 129.487 43.874C129.319 43.8708 128.959 43.8643 128.193 43.8643C127.583 43.8643 127.283 43.8708 127.134 43.874C127.064 43.8755 127.016 43.8768 126.986 43.875C126.973 43.8742 126.938 43.872 126.902 43.8555C126.88 43.8451 126.862 43.8314 126.85 43.8203L126.83 43.7998C126.823 43.7918 126.819 43.7842 126.817 43.7822C126.816 43.7794 126.814 43.7769 126.813 43.7754C126.812 43.7723 126.81 43.7694 126.809 43.7676C126.806 43.7637 126.804 43.759 126.802 43.7549C126.797 43.7463 126.791 43.7345 126.784 43.7207C126.77 43.6925 126.75 43.652 126.725 43.6006C126.673 43.4967 126.599 43.3462 126.508 43.1572C126.325 42.779 126.068 42.2439 125.772 41.6113C125.329 40.6628 124.795 39.4929 124.279 38.2988L123.773 37.1035C123.12 35.5224 122.522 34.077 122.084 33.0225C121.865 32.4951 121.687 32.0654 121.562 31.7656C121.527 31.6828 121.496 31.6101 121.47 31.5479C121.442 31.6002 121.411 31.6604 121.376 31.7285C121.206 32.0563 120.94 32.5713 120.552 33.3232C119.794 34.7923 118.572 37.1651 116.695 40.8125L123.214 40.835H123.334L123.38 40.9453L124.493 43.6143L124.598 43.8643H117.294C115.841 43.8643 114.52 43.863 113.562 43.8613C113.084 43.8605 112.696 43.8594 112.428 43.8584C112.294 43.8579 112.189 43.858 112.118 43.8574C112.083 43.8572 112.055 43.8567 112.036 43.8564C112.027 43.8563 112.02 43.8556 112.014 43.8555C112.011 43.8554 112.007 43.8557 112.003 43.8555C112.002 43.8554 111.997 43.8551 111.991 43.8545C111.989 43.8543 111.981 43.853 111.971 43.8506C111.964 43.8489 111.946 43.8428 111.935 43.8379C111.916 43.827 111.875 43.7811 111.85 43.7285L111.831 43.6748L111.839 43.623C111.84 43.6194 111.842 43.6139 111.843 43.6113C111.844 43.607 111.846 43.6028 111.847 43.6016C111.848 43.5988 111.849 43.596 111.85 43.5947C111.851 43.5918 111.853 43.5882 111.854 43.585C111.858 43.5781 111.862 43.5684 111.868 43.5566C111.88 43.5323 111.898 43.4964 111.922 43.4502C111.969 43.3577 112.039 43.2219 112.128 43.0479C112.306 42.6996 112.564 42.1973 112.882 41.5781C113.518 40.3391 114.396 38.6315 115.362 36.7549L119.86 27.9863L121.203 25.3682V25.3672L121.347 25.1035C121.392 25.0234 121.434 24.9519 121.471 24.8926C121.506 24.8341 121.539 24.7843 121.564 24.749C121.576 24.733 121.591 24.7123 121.608 24.6953C121.614 24.6894 121.636 24.6682 121.667 24.6533C121.683 24.6458 121.72 24.6314 121.77 24.6377ZM129.458 43.7061C129.458 43.7097 129.459 43.7128 129.459 43.7148C129.459 43.7172 129.46 43.7209 129.461 43.7236C129.46 43.719 129.459 43.7114 129.458 43.7021C129.458 43.7035 129.458 43.7049 129.458 43.7061Z" fill="#004F75" stroke="#004F75" stroke-width="0.361326"/>
<path d="M88.6367 24.4541C88.6799 24.4596 88.7154 24.48 88.7422 24.5068L88.7432 24.5059L88.7441 24.5078C88.7489 24.5127 88.7527 24.5182 88.7568 24.5234C88.7622 24.5302 88.7665 24.5345 88.7676 24.5361C88.771 24.5413 88.7738 24.5459 88.7754 24.5488C88.7787 24.5547 88.7818 24.5607 88.7842 24.5654C88.7891 24.5751 88.7946 24.5872 88.8008 24.6006C88.8134 24.628 88.8308 24.6666 88.8516 24.7139C88.8932 24.8088 88.9511 24.9434 89.0205 25.1074C89.1594 25.4355 89.3463 25.8831 89.5459 26.3711L90.0791 27.6543C90.1505 27.8244 90.2102 27.9658 90.2539 28.0684C90.2758 28.1196 90.2935 28.1612 90.3066 28.1914C90.3132 28.2064 90.3192 28.2186 90.3232 28.2275C90.3269 28.2356 90.3287 28.2393 90.3291 28.2402C90.3405 28.263 90.4281 28.4736 90.5703 28.8145C90.7152 29.1619 90.922 29.6573 91.1738 30.2637C91.6774 31.4765 92.3647 33.1346 93.1143 34.9453L94.2998 37.7939C94.7034 38.7572 95.1018 39.7023 95.4531 40.5352C95.8037 41.3662 96.1091 42.0901 96.3252 42.6025C96.4335 42.8593 96.5197 43.0649 96.5791 43.207C96.6088 43.278 96.6327 43.3337 96.6484 43.3721C96.656 43.3906 96.6616 43.4059 96.666 43.417C96.6682 43.4224 96.6711 43.4287 96.6729 43.4336C96.6736 43.4358 96.6745 43.4394 96.6758 43.4434C96.6764 43.4454 96.6784 43.4499 96.6797 43.4551C96.6803 43.4577 96.6819 43.464 96.6826 43.4678C96.6827 43.4685 96.6825 43.4696 96.6826 43.4707L96.6846 43.4863C96.6847 43.4876 96.6835 43.4897 96.6836 43.4912L96.6846 43.5C96.6846 43.498 96.6837 43.4961 96.6836 43.4941C96.6846 43.5088 96.6866 43.5318 96.6787 43.5586C96.655 43.6385 96.5906 43.6698 96.5625 43.6797C96.5376 43.6885 96.5155 43.6909 96.5088 43.6914C96.4816 43.6936 96.4305 43.6919 96.3545 43.6904C96.1864 43.6872 95.8261 43.6807 95.0605 43.6807C94.4499 43.6807 94.1503 43.6872 94.001 43.6904C93.9316 43.6919 93.8833 43.6932 93.8535 43.6914C93.8398 43.6906 93.8056 43.6884 93.7695 43.6719C93.747 43.6615 93.7289 43.6478 93.7168 43.6367L93.6973 43.6162C93.6906 43.6083 93.6858 43.6006 93.6846 43.5986C93.6827 43.5959 93.6816 43.5933 93.6807 43.5918C93.6788 43.5887 93.6768 43.5858 93.6758 43.584C93.6736 43.5801 93.6711 43.5754 93.6689 43.5713C93.6645 43.5627 93.6584 43.5509 93.6514 43.5371C93.6371 43.5089 93.6172 43.4684 93.5918 43.417C93.5404 43.3132 93.4666 43.1626 93.375 42.9736C93.1918 42.5955 92.9355 42.0603 92.6396 41.4277C92.196 40.4792 91.6621 39.3093 91.1465 38.1152L90.6406 36.9199C89.9875 35.3388 89.3889 33.8934 88.9512 32.8389C88.7323 32.3115 88.554 31.8818 88.4287 31.582C88.3941 31.4992 88.3631 31.4265 88.3369 31.3643C88.3097 31.4166 88.2785 31.4768 88.2432 31.5449C88.0731 31.8727 87.8068 32.3877 87.4189 33.1396C86.6611 34.6087 85.4387 36.9816 83.5625 40.6289L90.0811 40.6514H90.2012L90.2471 40.7617L91.3604 43.4307L91.4648 43.6807H84.1611C82.7079 43.6807 81.3871 43.6794 80.4297 43.6777C79.9511 43.6769 79.5632 43.6758 79.2949 43.6748C79.1608 43.6743 79.0564 43.6744 78.9854 43.6738C78.9499 43.6736 78.9221 43.6731 78.9033 43.6729C78.8944 43.6727 78.8867 43.672 78.8809 43.6719C78.8782 43.6718 78.874 43.6721 78.8701 43.6719C78.8688 43.6718 78.864 43.6716 78.8584 43.6709C78.8566 43.6707 78.8481 43.6694 78.8379 43.667C78.8315 43.6654 78.8131 43.6592 78.8018 43.6543C78.7831 43.6434 78.7421 43.5975 78.7168 43.5449L78.6982 43.4912L78.7061 43.4395C78.7072 43.4358 78.709 43.4303 78.71 43.4277C78.7116 43.4234 78.7133 43.4192 78.7139 43.418C78.7151 43.4152 78.7162 43.4124 78.7168 43.4111C78.7182 43.4082 78.7201 43.4046 78.7217 43.4014C78.7251 43.3945 78.7294 43.3848 78.7354 43.373C78.7476 43.3487 78.7656 43.3128 78.7891 43.2666C78.8361 43.1742 78.906 43.0383 78.9951 42.8643C79.1733 42.516 79.4311 42.0137 79.749 41.3945C80.3853 40.1555 81.2628 38.4479 82.2295 36.5713L86.7275 27.8027C87.2712 26.7309 87.8768 25.5532 88.0703 25.1846V25.1836L88.2139 24.9199C88.2591 24.8398 88.3017 24.7683 88.3379 24.709C88.3736 24.6505 88.406 24.6007 88.4316 24.5654C88.4433 24.5494 88.4585 24.5287 88.4756 24.5117C88.4815 24.5059 88.5027 24.4846 88.5342 24.4697C88.5501 24.4622 88.5876 24.4479 88.6367 24.4541ZM96.3252 43.5225C96.3256 43.5261 96.3259 43.5292 96.3262 43.5312C96.3266 43.5336 96.3275 43.5373 96.3281 43.54C96.3272 43.5355 96.3261 43.5278 96.3252 43.5186C96.3253 43.5199 96.3251 43.5213 96.3252 43.5225Z" fill="#004F75" stroke="#004F75" stroke-width="0.361326"/>
<path d="M167.016 43.5869C166.945 43.5869 166.91 43.5429 166.91 43.4549L166.963 25.3243C166.963 25.2539 166.998 25.2188 167.069 25.2188H170.288C170.359 25.2188 170.42 25.2539 170.473 25.3243L172.875 31.7403L175.276 25.3243C175.329 25.2539 175.39 25.2188 175.461 25.2188H178.707C178.777 25.2188 178.812 25.2539 178.812 25.3243L178.865 43.4549C178.865 43.5429 178.83 43.5869 178.76 43.5869H175.778C175.707 43.5869 175.672 43.5429 175.672 43.4549L175.646 29.9955L172.875 36.9393L170.13 29.9955L170.103 43.4549C170.103 43.5429 170.068 43.5869 169.998 43.5869H167.016Z" fill="#004F75"/>
<mask id="path-8-outside-1_1230_7215" maskUnits="userSpaceOnUse" x="145.369" y="36.8791" width="18.3842" height="8.90673" fill="black">
<rect fill="white" x="145.369" y="36.8791" width="18.3842" height="8.90673"/>
<path d="M162.567 39.9758C161.675 41.2666 160.517 42.2768 159.095 43.006C157.673 43.7352 156.15 44.0585 154.526 43.9757C152.879 43.8916 151.373 43.4009 150.009 42.5053C148.646 41.6098 147.588 40.4387 146.836 38.9914C146.783 38.891 146.734 38.7898 146.686 38.6885L149.434 38.5021C149.726 38.9362 150.073 39.3443 150.48 39.7239C151.664 40.8044 153.055 41.3856 154.654 41.4672C155.842 41.5278 156.947 41.305 157.969 40.7983C158.991 40.2917 159.83 39.569 160.485 38.6307L162.567 39.9758Z"/>
</mask>
<path d="M162.567 39.9758C161.675 41.2666 160.517 42.2768 159.095 43.006C157.673 43.7352 156.15 44.0585 154.526 43.9757C152.879 43.8916 151.373 43.4009 150.009 42.5053C148.646 41.6098 147.588 40.4387 146.836 38.9914C146.783 38.891 146.734 38.7898 146.686 38.6885L149.434 38.5021C149.726 38.9362 150.073 39.3443 150.48 39.7239C151.664 40.8044 153.055 41.3856 154.654 41.4672C155.842 41.5278 156.947 41.305 157.969 40.7983C158.991 40.2917 159.83 39.569 160.485 38.6307L162.567 39.9758Z" fill="#058ACB"/>
<path d="M162.567 39.9758L162.864 40.1813L163.076 39.8746L162.763 39.6724L162.567 39.9758ZM159.095 43.006L159.26 43.3276L159.26 43.3276L159.095 43.006ZM154.526 43.9757L154.508 44.3365L154.508 44.3365L154.526 43.9757ZM150.009 42.5053L149.811 42.8073L149.811 42.8073L150.009 42.5053ZM146.836 38.9914L146.515 39.158L146.515 39.158L146.836 38.9914ZM146.686 38.6885L146.661 38.328L146.132 38.3639L146.359 38.8435L146.686 38.6885ZM149.434 38.5021L149.734 38.3006L149.618 38.1275L149.41 38.1416L149.434 38.5021ZM150.48 39.7239L150.233 39.988L150.236 39.9908L150.48 39.7239ZM154.654 41.4672L154.636 41.8281L154.636 41.8281L154.654 41.4672ZM157.969 40.7983L158.129 41.122L158.129 41.122L157.969 40.7983ZM160.485 38.6307L160.681 38.3273L160.388 38.1381L160.189 38.4239L160.485 38.6307ZM162.567 39.9758L162.269 39.7704C161.412 41.0112 160.3 41.9819 158.93 42.6845L159.095 43.006L159.26 43.3276C160.734 42.5717 161.937 41.522 162.864 40.1813L162.567 39.9758ZM159.095 43.006L158.93 42.6845C157.566 43.3842 156.106 43.6944 154.545 43.6148L154.526 43.9757L154.508 44.3365C156.194 44.4225 157.781 44.0863 159.26 43.3276L159.095 43.006ZM154.526 43.9757L154.545 43.6148C152.96 43.5339 151.517 43.0633 150.208 42.2033L150.009 42.5053L149.811 42.8073C151.229 43.7385 152.797 44.2492 154.508 44.3365L154.526 43.9757ZM150.009 42.5053L150.208 42.2033C148.896 41.3417 147.88 40.2172 147.156 38.8248L146.836 38.9914L146.515 39.158C147.296 40.6603 148.396 41.8779 149.811 42.8073L150.009 42.5053ZM146.836 38.9914L147.156 38.8248C147.107 38.7295 147.059 38.6324 147.012 38.5334L146.686 38.6885L146.359 38.8435C146.409 38.9472 146.46 39.0526 146.515 39.158L146.836 38.9914ZM146.686 38.6885L146.71 39.049L149.459 38.8626L149.434 38.5021L149.41 38.1416L146.661 38.328L146.686 38.6885ZM149.434 38.5021L149.134 38.7036C149.442 39.1612 149.807 39.5901 150.233 39.988L150.48 39.7239L150.726 39.4599C150.34 39.0984 150.01 38.7112 149.734 38.3006L149.434 38.5021ZM150.48 39.7239L150.236 39.9908C151.482 41.1277 152.953 41.7421 154.636 41.8281L154.654 41.4672L154.673 41.1064C153.157 41.029 151.845 40.4811 150.723 39.4571L150.48 39.7239ZM154.654 41.4672L154.636 41.8281C155.882 41.8916 157.05 41.6574 158.129 41.122L157.969 40.7983L157.808 40.4746C156.844 40.9525 155.801 41.1639 154.673 41.1064L154.654 41.4672ZM157.969 40.7983L158.129 41.122C159.206 40.5884 160.091 39.8255 160.781 38.8376L160.485 38.6307L160.189 38.4239C159.568 39.3126 158.776 39.995 157.808 40.4746L157.969 40.7983ZM160.485 38.6307L160.289 38.9342L162.371 40.2793L162.567 39.9758L162.763 39.6724L160.681 38.3273L160.485 38.6307Z" fill="#058ACB" mask="url(#path-8-outside-1_1230_7215)"/>
<mask id="path-10-outside-2_1230_7215" maskUnits="userSpaceOnUse" x="144.59" y="24.2197" width="20" height="13" fill="black">
<rect fill="white" x="144.59" y="24.2197" width="20" height="13"/>
<path d="M154.735 25.2198C156.385 25.215 157.915 25.6234 159.325 26.4444C160.735 27.2653 161.855 28.3783 162.684 29.7832C163.513 31.1638 163.93 32.6912 163.935 34.3653C163.935 34.6565 163.912 35.0696 163.865 35.6036L156.039 35.626L148.214 35.6485C148.271 35.9472 148.347 36.2359 148.439 36.5157H145.834C145.674 35.84 145.592 35.1407 145.59 34.418C145.585 32.7439 145.994 31.2145 146.814 29.8291C147.635 28.4194 148.748 27.2998 150.153 26.4707C151.558 25.6418 153.086 25.2246 154.735 25.2198ZM154.743 27.6944C153.676 27.6974 152.633 27.9555 151.615 28.4678C150.598 28.956 149.774 29.6384 149.146 30.5137C148.517 31.3647 148.204 32.2876 148.207 33.2823L161.311 33.2452C161.308 32.2504 160.99 31.3289 160.356 30.4815C159.723 29.6098 158.896 28.9326 157.875 28.4502C156.879 27.9436 155.835 27.6913 154.743 27.6944Z"/>
</mask>
<path d="M154.735 25.2198C156.385 25.215 157.915 25.6234 159.325 26.4444C160.735 27.2653 161.855 28.3783 162.684 29.7832C163.513 31.1638 163.93 32.6912 163.935 34.3653C163.935 34.6565 163.912 35.0696 163.865 35.6036L156.039 35.626L148.214 35.6485C148.271 35.9472 148.347 36.2359 148.439 36.5157H145.834C145.674 35.84 145.592 35.1407 145.59 34.418C145.585 32.7439 145.994 31.2145 146.814 29.8291C147.635 28.4194 148.748 27.2998 150.153 26.4707C151.558 25.6418 153.086 25.2246 154.735 25.2198ZM154.743 27.6944C153.676 27.6974 152.633 27.9555 151.615 28.4678C150.598 28.956 149.774 29.6384 149.146 30.5137C148.517 31.3647 148.204 32.2876 148.207 33.2823L161.311 33.2452C161.308 32.2504 160.99 31.3289 160.356 30.4815C159.723 29.6098 158.896 28.9326 157.875 28.4502C156.879 27.9436 155.835 27.6913 154.743 27.6944Z" fill="#004F75"/>
<path d="M154.735 25.2198L154.734 24.8584L154.734 24.8584L154.735 25.2198ZM159.325 26.4444L159.507 26.1321L159.507 26.1321L159.325 26.4444ZM162.684 29.7832L162.372 29.9669L162.374 29.9692L162.684 29.7832ZM163.935 34.3653L164.296 34.3642L164.296 34.3642L163.935 34.3653ZM163.865 35.6036L163.866 35.9649L164.196 35.9639L164.225 35.6352L163.865 35.6036ZM156.039 35.626L156.038 35.2647L156.038 35.2647L156.039 35.626ZM148.214 35.6485L148.213 35.2872L147.777 35.2884L147.859 35.7161L148.214 35.6485ZM148.439 36.5157V36.877H148.938L148.782 36.4029L148.439 36.5157ZM145.834 36.5157L145.482 36.599L145.548 36.877H145.834V36.5157ZM145.59 34.418L145.229 34.419L145.229 34.419L145.59 34.418ZM146.814 29.8291L147.125 30.0133L147.127 30.011L146.814 29.8291ZM150.153 26.4707L149.97 26.1596L149.97 26.1596L150.153 26.4707ZM154.743 27.6944L154.742 27.3331L154.742 27.3331L154.743 27.6944ZM151.615 28.4678L151.772 28.7937L151.778 28.7905L151.615 28.4678ZM149.146 30.5137L149.436 30.7284L149.439 30.7244L149.146 30.5137ZM148.207 33.2823L147.846 33.2833L147.847 33.6446L148.208 33.6436L148.207 33.2823ZM161.311 33.2452L161.312 33.6065L161.673 33.6055L161.672 33.2441L161.311 33.2452ZM160.356 30.4815L160.064 30.6939L160.067 30.6978L160.356 30.4815ZM157.875 28.4502L157.711 28.7724L157.721 28.7769L157.875 28.4502ZM154.735 25.2198L154.736 25.5811C156.323 25.5765 157.79 25.9684 159.143 26.7566L159.325 26.4444L159.507 26.1321C158.041 25.2785 156.448 24.8535 154.734 24.8584L154.735 25.2198ZM159.325 26.4444L159.143 26.7566C160.5 27.5465 161.575 28.6151 162.372 29.9669L162.684 29.7832L162.995 29.5996C162.134 28.1414 160.97 26.9842 159.507 26.1321L159.325 26.4444ZM162.684 29.7832L162.374 29.9692C163.168 31.2917 163.569 32.7548 163.573 34.3663L163.935 34.3653L164.296 34.3642C164.291 32.6276 163.857 31.036 162.993 29.5973L162.684 29.7832ZM163.935 34.3653L163.573 34.3663C163.574 34.641 163.552 35.0413 163.505 35.5719L163.865 35.6036L164.225 35.6352C164.273 35.0978 164.297 34.6719 164.296 34.3642L163.935 34.3653ZM163.865 35.6036L163.864 35.2422L156.038 35.2647L156.039 35.626L156.04 35.9873L163.866 35.9649L163.865 35.6036ZM156.039 35.626L156.038 35.2647L148.213 35.2872L148.214 35.6485L148.215 36.0098L156.04 35.9873L156.039 35.626ZM148.214 35.6485L147.859 35.7161C147.919 36.0308 147.999 36.3346 148.095 36.6284L148.439 36.5157L148.782 36.4029C148.695 36.1373 148.623 35.8636 148.569 35.5809L148.214 35.6485ZM148.439 36.5157V36.1543H145.834V36.5157V36.877H148.439V36.5157ZM145.834 36.5157L146.186 36.4323C146.032 35.7845 145.953 35.1128 145.951 34.417L145.59 34.418L145.229 34.419C145.231 35.1685 145.316 35.8956 145.482 36.599L145.834 36.5157ZM145.59 34.418L145.951 34.417C145.947 32.8055 146.339 31.3404 147.125 30.0133L146.814 29.8291L146.504 29.6449C145.648 31.0886 145.224 32.6824 145.229 34.419L145.59 34.418ZM146.814 29.8291L147.127 30.011C147.917 28.6546 148.985 27.5796 150.337 26.7819L150.153 26.4707L149.97 26.1596C148.511 27.02 147.354 28.1842 146.502 29.6473L146.814 29.8291ZM150.153 26.4707L150.337 26.7819C151.686 25.9859 153.15 25.5857 154.736 25.5811L154.735 25.2198L154.734 24.8584C153.021 24.8634 151.431 25.2976 149.97 26.1596L150.153 26.4707ZM154.743 27.6944L154.742 27.3331C153.615 27.3363 152.517 27.6093 151.453 28.1451L151.615 28.4678L151.778 28.7905C152.749 28.3017 153.737 28.0586 154.744 28.0557L154.743 27.6944ZM151.615 28.4678L151.459 28.142C150.389 28.6552 149.517 29.376 148.852 30.303L149.146 30.5137L149.439 30.7244C150.03 29.9007 150.806 29.2569 151.772 28.7936L151.615 28.4678ZM149.146 30.5137L148.855 30.2991C148.184 31.2082 147.843 32.2058 147.846 33.2833L148.207 33.2823L148.568 33.2812C148.566 32.3693 148.851 31.5211 149.436 30.7283L149.146 30.5137ZM148.207 33.2823L148.208 33.6436L161.312 33.6065L161.311 33.2452L161.31 32.8838L148.206 32.9209L148.207 33.2823ZM161.311 33.2452L161.672 33.2441C161.669 32.1667 161.322 31.1706 160.646 30.2652L160.356 30.4815L160.067 30.6978C160.657 31.4871 160.947 32.3341 160.949 33.2462L161.311 33.2452ZM160.356 30.4815L160.649 30.2691C159.978 29.3459 159.102 28.6305 158.029 28.1236L157.875 28.4502L157.721 28.7769C158.689 29.2347 159.468 29.8736 160.064 30.6939L160.356 30.4815ZM157.875 28.4502L158.039 28.1282C156.993 27.5963 155.893 27.3298 154.742 27.3331L154.743 27.6944L154.744 28.0557C155.777 28.0528 156.765 28.291 157.711 28.7723L157.875 28.4502Z" fill="#004F75" mask="url(#path-10-outside-2_1230_7215)"/>
<path d="M16.2852 29.1759L32.6616 0V29.1759L24.3872 43.5268L16.2852 29.1759Z" fill="#058ACB"/>
<path d="M49.0391 29.1759L32.6626 0V29.1759L40.937 43.5268L49.0391 29.1759Z" fill="#058ACB"/>
<path d="M0 0.0410156H22.1082C19.7379 4.29314 14.3078 13.7455 13.5321 15.9434C12.8258 17.9446 12.7851 21.3016 13.058 23.1404L0 0.0410156Z" fill="#004F75"/>
<path d="M62.5312 0.0410156H40.4231C42.7934 4.29314 48.2234 13.7455 48.9992 15.9434C49.7055 17.9446 49.7461 21.3016 49.4732 23.1404L62.5312 0.0410156Z" fill="#004F75"/>
</svg>
